<?xml version="1.0" encoding="utf-8" standalone="no"?>
<!DOCTYPE svg PUBLIC "-//W3C//DTD SVG 1.1//EN"
  "http://www.w3.org/Graphics/SVG/1.1/DTD/svg11.dtd">
<!-- Created with matplotlib (https://matplotlib.org/) -->
<svg height="881.1576pt" version="1.1" viewBox="0 0 890.6065 881.1576" width="890.6065pt" xmlns="http://www.w3.org/2000/svg" xmlns:xlink="http://www.w3.org/1999/xlink">
 <metadata>
  <rdf:RDF xmlns:cc="http://creativecommons.org/ns#" xmlns:dc="http://purl.org/dc/elements/1.1/" xmlns:rdf="http://www.w3.org/1999/02/22-rdf-syntax-ns#">
   <cc:Work>
    <dc:type rdf:resource="http://purl.org/dc/dcmitype/StillImage"/>
    <dc:date>2021-04-26T10:18:16.591883</dc:date>
    <dc:format>image/svg+xml</dc:format>
    <dc:creator>
     <cc:Agent>
      <dc:title>Matplotlib v3.3.4, https://matplotlib.org/</dc:title>
     </cc:Agent>
    </dc:creator>
   </cc:Work>
  </rdf:RDF>
 </metadata>
 <defs>
  <style type="text/css">*{stroke-linecap:butt;stroke-linejoin:round;}</style>
 </defs>
 <g id="figure_1">
  <g id="patch_1">
   <path d="M 0 881.1576 
L 890.6065 881.1576 
L 890.6065 0 
L 0 0 
z
" style="fill:#ffffff;"/>
  </g>
  <g id="axes_1">
   <g id="patch_2">
    <path d="M 46.4065 352.4901 
L 883.4065 352.4901 
L 883.4065 26.3301 
L 46.4065 26.3301 
z
" style="fill:#ffffff;"/>
   </g>
   <g id="PolyCollection_1">
    <defs>
     <path d="M 84.451955 -854.8275 
L 84.451955 -528.6675 
L 165.540952 -528.6675 
L 165.540952 -854.8275 
L 165.540952 -854.8275 
L 84.451955 -854.8275 
z
" id="m26dc1a12ff" style="stroke:#808080;"/>
    </defs>
    <g clip-path="url(#p1412b2073d)">
     <use style="fill:#808080;stroke:#808080;" x="0" xlink:href="#m26dc1a12ff" y="881.1576"/>
    </g>
   </g>
   <g id="PolyCollection_2">
    <defs>
     <path d="M 84.451955 -854.8275 
L 84.451955 -528.6675 
L 139.681296 -528.6675 
L 139.681296 -854.8275 
L 139.681296 -854.8275 
L 84.451955 -854.8275 
z
" id="m89801b6887" style="stroke:#000000;"/>
    </defs>
    <g clip-path="url(#p1412b2073d)">
     <use style="stroke:#000000;" x="0" xlink:href="#m89801b6887" y="881.1576"/>
    </g>
   </g>
   <g id="PolyCollection_3">
    <defs>
     <path d="M 374.699505 -854.8275 
L 374.699505 -528.6675 
L 622.234897 -528.6675 
L 622.234897 -854.8275 
L 622.234897 -854.8275 
L 374.699505 -854.8275 
z
" id="mbaa9fedd97" style="stroke:#808080;"/>
    </defs>
    <g clip-path="url(#p1412b2073d)">
     <use style="fill:#808080;stroke:#808080;" x="0" xlink:href="#mbaa9fedd97" y="881.1576"/>
    </g>
   </g>
   <g id="PolyCollection_4">
    <defs>
     <path d="M 400.556545 -854.8275 
L 400.556545 -528.6675 
L 596.353933 -528.6675 
L 596.353933 -854.8275 
L 596.353933 -854.8275 
L 400.556545 -854.8275 
z
" id="m735d731a2d" style="stroke:#000000;"/>
    </defs>
    <g clip-path="url(#p1412b2073d)">
     <use style="stroke:#000000;" x="0" xlink:href="#m735d731a2d" y="881.1576"/>
    </g>
   </g>
   <g id="matplotlib.axis_1">
    <g id="xtick_1">
     <g id="line2d_1">
      <path clip-path="url(#p1412b2073d)" d="M 67.739748 352.4901 
L 67.739748 26.3301 
" style="fill:none;stroke:#b0b0b0;stroke-linecap:square;stroke-width:0.8;"/>
     </g>
     <g id="line2d_2"/>
     <g id="text_1">
      <!-- 3.75 -->
      <g style="fill:#565656;" transform="translate(54.380373 367.608225)scale(0.12 -0.12)">
       <defs>
        <path d="M 40.578125 39.3125 
Q 47.65625 37.796875 51.625 33 
Q 55.609375 28.21875 55.609375 21.1875 
Q 55.609375 10.40625 48.1875 4.484375 
Q 40.765625 -1.421875 27.09375 -1.421875 
Q 22.515625 -1.421875 17.65625 -0.515625 
Q 12.796875 0.390625 7.625 2.203125 
L 7.625 11.71875 
Q 11.71875 9.328125 16.59375 8.109375 
Q 21.484375 6.890625 26.8125 6.890625 
Q 36.078125 6.890625 40.9375 10.546875 
Q 45.796875 14.203125 45.796875 21.1875 
Q 45.796875 27.640625 41.28125 31.265625 
Q 36.765625 34.90625 28.71875 34.90625 
L 20.21875 34.90625 
L 20.21875 43.015625 
L 29.109375 43.015625 
Q 36.375 43.015625 40.234375 45.921875 
Q 44.09375 48.828125 44.09375 54.296875 
Q 44.09375 59.90625 40.109375 62.90625 
Q 36.140625 65.921875 28.71875 65.921875 
Q 24.65625 65.921875 20.015625 65.03125 
Q 15.375 64.15625 9.8125 62.3125 
L 9.8125 71.09375 
Q 15.4375 72.65625 20.34375 73.4375 
Q 25.25 74.21875 29.59375 74.21875 
Q 40.828125 74.21875 47.359375 69.109375 
Q 53.90625 64.015625 53.90625 55.328125 
Q 53.90625 49.265625 50.4375 45.09375 
Q 46.96875 40.921875 40.578125 39.3125 
z
" id="DejaVuSans-51"/>
        <path d="M 10.6875 12.40625 
L 21 12.40625 
L 21 0 
L 10.6875 0 
z
" id="DejaVuSans-46"/>
        <path d="M 8.203125 72.90625 
L 55.078125 72.90625 
L 55.078125 68.703125 
L 28.609375 0 
L 18.3125 0 
L 43.21875 64.59375 
L 8.203125 64.59375 
z
" id="DejaVuSans-55"/>
        <path d="M 10.796875 72.90625 
L 49.515625 72.90625 
L 49.515625 64.59375 
L 19.828125 64.59375 
L 19.828125 46.734375 
Q 21.96875 47.46875 24.109375 47.828125 
Q 26.265625 48.1875 28.421875 48.1875 
Q 40.625 48.1875 47.75 41.5 
Q 54.890625 34.8125 54.890625 23.390625 
Q 54.890625 11.625 47.5625 5.09375 
Q 40.234375 -1.421875 26.90625 -1.421875 
Q 22.3125 -1.421875 17.546875 -0.640625 
Q 12.796875 0.140625 7.71875 1.703125 
L 7.71875 11.625 
Q 12.109375 9.234375 16.796875 8.0625 
Q 21.484375 6.890625 26.703125 6.890625 
Q 35.15625 6.890625 40.078125 11.328125 
Q 45.015625 15.765625 45.015625 23.390625 
Q 45.015625 31 40.078125 35.4375 
Q 35.15625 39.890625 26.703125 39.890625 
Q 22.75 39.890625 18.8125 39.015625 
Q 14.890625 38.140625 10.796875 36.28125 
z
" id="DejaVuSans-53"/>
       </defs>
       <use xlink:href="#DejaVuSans-51"/>
       <use x="63.623047" xlink:href="#DejaVuSans-46"/>
       <use x="95.410156" xlink:href="#DejaVuSans-55"/>
       <use x="159.033203" xlink:href="#DejaVuSans-53"/>
      </g>
     </g>
    </g>
    <g id="xtick_2">
     <g id="line2d_3">
      <path clip-path="url(#p1412b2073d)" d="M 181.877641 352.4901 
L 181.877641 26.3301 
" style="fill:none;stroke:#b0b0b0;stroke-linecap:square;stroke-width:0.8;"/>
     </g>
     <g id="line2d_4"/>
     <g id="text_2">
      <!-- 4.00 -->
      <g style="fill:#565656;" transform="translate(168.518266 367.608225)scale(0.12 -0.12)">
       <defs>
        <path d="M 37.796875 64.3125 
L 12.890625 25.390625 
L 37.796875 25.390625 
z
M 35.203125 72.90625 
L 47.609375 72.90625 
L 47.609375 25.390625 
L 58.015625 25.390625 
L 58.015625 17.1875 
L 47.609375 17.1875 
L 47.609375 0 
L 37.796875 0 
L 37.796875 17.1875 
L 4.890625 17.1875 
L 4.890625 26.703125 
z
" id="DejaVuSans-52"/>
        <path d="M 31.78125 66.40625 
Q 24.171875 66.40625 20.328125 58.90625 
Q 16.5 51.421875 16.5 36.375 
Q 16.5 21.390625 20.328125 13.890625 
Q 24.171875 6.390625 31.78125 6.390625 
Q 39.453125 6.390625 43.28125 13.890625 
Q 47.125 21.390625 47.125 36.375 
Q 47.125 51.421875 43.28125 58.90625 
Q 39.453125 66.40625 31.78125 66.40625 
z
M 31.78125 74.21875 
Q 44.046875 74.21875 50.515625 64.515625 
Q 56.984375 54.828125 56.984375 36.375 
Q 56.984375 17.96875 50.515625 8.265625 
Q 44.046875 -1.421875 31.78125 -1.421875 
Q 19.53125 -1.421875 13.0625 8.265625 
Q 6.59375 17.96875 6.59375 36.375 
Q 6.59375 54.828125 13.0625 64.515625 
Q 19.53125 74.21875 31.78125 74.21875 
z
" id="DejaVuSans-48"/>
       </defs>
       <use xlink:href="#DejaVuSans-52"/>
       <use x="63.623047" xlink:href="#DejaVuSans-46"/>
       <use x="95.410156" xlink:href="#DejaVuSans-48"/>
       <use x="159.033203" xlink:href="#DejaVuSans-48"/>
      </g>
     </g>
    </g>
    <g id="xtick_3">
     <g id="line2d_5">
      <path clip-path="url(#p1412b2073d)" d="M 296.015534 352.4901 
L 296.015534 26.3301 
" style="fill:none;stroke:#b0b0b0;stroke-linecap:square;stroke-width:0.8;"/>
     </g>
     <g id="line2d_6"/>
     <g id="text_3">
      <!-- 4.25 -->
      <g style="fill:#565656;" transform="translate(282.656159 367.608225)scale(0.12 -0.12)">
       <defs>
        <path d="M 19.1875 8.296875 
L 53.609375 8.296875 
L 53.609375 0 
L 7.328125 0 
L 7.328125 8.296875 
Q 12.9375 14.109375 22.625 23.890625 
Q 32.328125 33.6875 34.8125 36.53125 
Q 39.546875 41.84375 41.421875 45.53125 
Q 43.3125 49.21875 43.3125 52.78125 
Q 43.3125 58.59375 39.234375 62.25 
Q 35.15625 65.921875 28.609375 65.921875 
Q 23.96875 65.921875 18.8125 64.3125 
Q 13.671875 62.703125 7.8125 59.421875 
L 7.8125 69.390625 
Q 13.765625 71.78125 18.9375 73 
Q 24.125 74.21875 28.421875 74.21875 
Q 39.75 74.21875 46.484375 68.546875 
Q 53.21875 62.890625 53.21875 53.421875 
Q 53.21875 48.921875 51.53125 44.890625 
Q 49.859375 40.875 45.40625 35.40625 
Q 44.1875 33.984375 37.640625 27.21875 
Q 31.109375 20.453125 19.1875 8.296875 
z
" id="DejaVuSans-50"/>
       </defs>
       <use xlink:href="#DejaVuSans-52"/>
       <use x="63.623047" xlink:href="#DejaVuSans-46"/>
       <use x="95.410156" xlink:href="#DejaVuSans-50"/>
       <use x="159.033203" xlink:href="#DejaVuSans-53"/>
      </g>
     </g>
    </g>
    <g id="xtick_4">
     <g id="line2d_7">
      <path clip-path="url(#p1412b2073d)" d="M 410.153428 352.4901 
L 410.153428 26.3301 
" style="fill:none;stroke:#b0b0b0;stroke-linecap:square;stroke-width:0.8;"/>
     </g>
     <g id="line2d_8"/>
     <g id="text_4">
      <!-- 4.50 -->
      <g style="fill:#565656;" transform="translate(396.794053 367.608225)scale(0.12 -0.12)">
       <use xlink:href="#DejaVuSans-52"/>
       <use x="63.623047" xlink:href="#DejaVuSans-46"/>
       <use x="95.410156" xlink:href="#DejaVuSans-53"/>
       <use x="159.033203" xlink:href="#DejaVuSans-48"/>
      </g>
     </g>
    </g>
    <g id="xtick_5">
     <g id="line2d_9">
      <path clip-path="url(#p1412b2073d)" d="M 524.291321 352.4901 
L 524.291321 26.3301 
" style="fill:none;stroke:#b0b0b0;stroke-linecap:square;stroke-width:0.8;"/>
     </g>
     <g id="line2d_10"/>
     <g id="text_5">
      <!-- 4.75 -->
      <g style="fill:#565656;" transform="translate(510.931946 367.608225)scale(0.12 -0.12)">
       <use xlink:href="#DejaVuSans-52"/>
       <use x="63.623047" xlink:href="#DejaVuSans-46"/>
       <use x="95.410156" xlink:href="#DejaVuSans-55"/>
       <use x="159.033203" xlink:href="#DejaVuSans-53"/>
      </g>
     </g>
    </g>
    <g id="xtick_6">
     <g id="line2d_11">
      <path clip-path="url(#p1412b2073d)" d="M 638.429215 352.4901 
L 638.429215 26.3301 
" style="fill:none;stroke:#b0b0b0;stroke-linecap:square;stroke-width:0.8;"/>
     </g>
     <g id="line2d_12"/>
     <g id="text_6">
      <!-- 5.00 -->
      <g style="fill:#565656;" transform="translate(625.06984 367.608225)scale(0.12 -0.12)">
       <use xlink:href="#DejaVuSans-53"/>
       <use x="63.623047" xlink:href="#DejaVuSans-46"/>
       <use x="95.410156" xlink:href="#DejaVuSans-48"/>
       <use x="159.033203" xlink:href="#DejaVuSans-48"/>
      </g>
     </g>
    </g>
    <g id="xtick_7">
     <g id="line2d_13">
      <path clip-path="url(#p1412b2073d)" d="M 752.567108 352.4901 
L 752.567108 26.3301 
" style="fill:none;stroke:#b0b0b0;stroke-linecap:square;stroke-width:0.8;"/>
     </g>
     <g id="line2d_14"/>
     <g id="text_7">
      <!-- 5.25 -->
      <g style="fill:#565656;" transform="translate(739.207733 367.608225)scale(0.12 -0.12)">
       <use xlink:href="#DejaVuSans-53"/>
       <use x="63.623047" xlink:href="#DejaVuSans-46"/>
       <use x="95.410156" xlink:href="#DejaVuSans-50"/>
       <use x="159.033203" xlink:href="#DejaVuSans-53"/>
      </g>
     </g>
    </g>
    <g id="xtick_8">
     <g id="line2d_15">
      <path clip-path="url(#p1412b2073d)" d="M 866.705002 352.4901 
L 866.705002 26.3301 
" style="fill:none;stroke:#b0b0b0;stroke-linecap:square;stroke-width:0.8;"/>
     </g>
     <g id="line2d_16"/>
     <g id="text_8">
      <!-- 5.50 -->
      <g style="fill:#565656;" transform="translate(853.345627 367.608225)scale(0.12 -0.12)">
       <use xlink:href="#DejaVuSans-53"/>
       <use x="63.623047" xlink:href="#DejaVuSans-46"/>
       <use x="95.410156" xlink:href="#DejaVuSans-53"/>
       <use x="159.033203" xlink:href="#DejaVuSans-48"/>
      </g>
     </g>
    </g>
    <g id="text_9">
     <!-- time (JD) -->
     <g transform="translate(433.065625 385.0456)scale(0.144 -0.144)">
      <defs>
       <path d="M 18.3125 70.21875 
L 18.3125 54.6875 
L 36.8125 54.6875 
L 36.8125 47.703125 
L 18.3125 47.703125 
L 18.3125 18.015625 
Q 18.3125 11.328125 20.140625 9.421875 
Q 21.96875 7.515625 27.59375 7.515625 
L 36.8125 7.515625 
L 36.8125 0 
L 27.59375 0 
Q 17.1875 0 13.234375 3.875 
Q 9.28125 7.765625 9.28125 18.015625 
L 9.28125 47.703125 
L 2.6875 47.703125 
L 2.6875 54.6875 
L 9.28125 54.6875 
L 9.28125 70.21875 
z
" id="DejaVuSans-116"/>
       <path d="M 9.421875 54.6875 
L 18.40625 54.6875 
L 18.40625 0 
L 9.421875 0 
z
M 9.421875 75.984375 
L 18.40625 75.984375 
L 18.40625 64.59375 
L 9.421875 64.59375 
z
" id="DejaVuSans-105"/>
       <path d="M 52 44.1875 
Q 55.375 50.25 60.0625 53.125 
Q 64.75 56 71.09375 56 
Q 79.640625 56 84.28125 50.015625 
Q 88.921875 44.046875 88.921875 33.015625 
L 88.921875 0 
L 79.890625 0 
L 79.890625 32.71875 
Q 79.890625 40.578125 77.09375 44.375 
Q 74.3125 48.1875 68.609375 48.1875 
Q 61.625 48.1875 57.5625 43.546875 
Q 53.515625 38.921875 53.515625 30.90625 
L 53.515625 0 
L 44.484375 0 
L 44.484375 32.71875 
Q 44.484375 40.625 41.703125 44.40625 
Q 38.921875 48.1875 33.109375 48.1875 
Q 26.21875 48.1875 22.15625 43.53125 
Q 18.109375 38.875 18.109375 30.90625 
L 18.109375 0 
L 9.078125 0 
L 9.078125 54.6875 
L 18.109375 54.6875 
L 18.109375 46.1875 
Q 21.1875 51.21875 25.484375 53.609375 
Q 29.78125 56 35.6875 56 
Q 41.65625 56 45.828125 52.96875 
Q 50 49.953125 52 44.1875 
z
" id="DejaVuSans-109"/>
       <path d="M 56.203125 29.59375 
L 56.203125 25.203125 
L 14.890625 25.203125 
Q 15.484375 15.921875 20.484375 11.0625 
Q 25.484375 6.203125 34.421875 6.203125 
Q 39.59375 6.203125 44.453125 7.46875 
Q 49.3125 8.734375 54.109375 11.28125 
L 54.109375 2.78125 
Q 49.265625 0.734375 44.1875 -0.34375 
Q 39.109375 -1.421875 33.890625 -1.421875 
Q 20.796875 -1.421875 13.15625 6.1875 
Q 5.515625 13.8125 5.515625 26.8125 
Q 5.515625 40.234375 12.765625 48.109375 
Q 20.015625 56 32.328125 56 
Q 43.359375 56 49.78125 48.890625 
Q 56.203125 41.796875 56.203125 29.59375 
z
M 47.21875 32.234375 
Q 47.125 39.59375 43.09375 43.984375 
Q 39.0625 48.390625 32.421875 48.390625 
Q 24.90625 48.390625 20.390625 44.140625 
Q 15.875 39.890625 15.1875 32.171875 
z
" id="DejaVuSans-101"/>
       <path id="DejaVuSans-32"/>
       <path d="M 31 75.875 
Q 24.46875 64.65625 21.28125 53.65625 
Q 18.109375 42.671875 18.109375 31.390625 
Q 18.109375 20.125 21.3125 9.0625 
Q 24.515625 -2 31 -13.1875 
L 23.1875 -13.1875 
Q 15.875 -1.703125 12.234375 9.375 
Q 8.59375 20.453125 8.59375 31.390625 
Q 8.59375 42.28125 12.203125 53.3125 
Q 15.828125 64.359375 23.1875 75.875 
z
" id="DejaVuSans-40"/>
       <path d="M 9.8125 72.90625 
L 19.671875 72.90625 
L 19.671875 5.078125 
Q 19.671875 -8.109375 14.671875 -14.0625 
Q 9.671875 -20.015625 -1.421875 -20.015625 
L -5.171875 -20.015625 
L -5.171875 -11.71875 
L -2.09375 -11.71875 
Q 4.4375 -11.71875 7.125 -8.046875 
Q 9.8125 -4.390625 9.8125 5.078125 
z
" id="DejaVuSans-74"/>
       <path d="M 19.671875 64.796875 
L 19.671875 8.109375 
L 31.59375 8.109375 
Q 46.6875 8.109375 53.6875 14.9375 
Q 60.6875 21.78125 60.6875 36.53125 
Q 60.6875 51.171875 53.6875 57.984375 
Q 46.6875 64.796875 31.59375 64.796875 
z
M 9.8125 72.90625 
L 30.078125 72.90625 
Q 51.265625 72.90625 61.171875 64.09375 
Q 71.09375 55.28125 71.09375 36.53125 
Q 71.09375 17.671875 61.125 8.828125 
Q 51.171875 0 30.078125 0 
L 9.8125 0 
z
" id="DejaVuSans-68"/>
       <path d="M 8.015625 75.875 
L 15.828125 75.875 
Q 23.140625 64.359375 26.78125 53.3125 
Q 30.421875 42.28125 30.421875 31.390625 
Q 30.421875 20.453125 26.78125 9.375 
Q 23.140625 -1.703125 15.828125 -13.1875 
L 8.015625 -13.1875 
Q 14.5 -2 17.703125 9.0625 
Q 20.90625 20.125 20.90625 31.390625 
Q 20.90625 42.671875 17.703125 53.65625 
Q 14.5 64.65625 8.015625 75.875 
z
" id="DejaVuSans-41"/>
      </defs>
      <use xlink:href="#DejaVuSans-116"/>
      <use x="39.208984" xlink:href="#DejaVuSans-105"/>
      <use x="66.992188" xlink:href="#DejaVuSans-109"/>
      <use x="164.404297" xlink:href="#DejaVuSans-101"/>
      <use x="225.927734" xlink:href="#DejaVuSans-32"/>
      <use x="257.714844" xlink:href="#DejaVuSans-40"/>
      <use x="296.728516" xlink:href="#DejaVuSans-74"/>
      <use x="326.220703" xlink:href="#DejaVuSans-68"/>
      <use x="403.222656" xlink:href="#DejaVuSans-41"/>
     </g>
    </g>
    <g id="text_10">
     <!-- +2.4681e6 -->
     <g style="fill:#565656;" transform="translate(816.343375 382.221975)scale(0.12 -0.12)">
      <defs>
       <path d="M 46 62.703125 
L 46 35.5 
L 73.1875 35.5 
L 73.1875 27.203125 
L 46 27.203125 
L 46 0 
L 37.796875 0 
L 37.796875 27.203125 
L 10.59375 27.203125 
L 10.59375 35.5 
L 37.796875 35.5 
L 37.796875 62.703125 
z
" id="DejaVuSans-43"/>
       <path d="M 33.015625 40.375 
Q 26.375 40.375 22.484375 35.828125 
Q 18.609375 31.296875 18.609375 23.390625 
Q 18.609375 15.53125 22.484375 10.953125 
Q 26.375 6.390625 33.015625 6.390625 
Q 39.65625 6.390625 43.53125 10.953125 
Q 47.40625 15.53125 47.40625 23.390625 
Q 47.40625 31.296875 43.53125 35.828125 
Q 39.65625 40.375 33.015625 40.375 
z
M 52.59375 71.296875 
L 52.59375 62.3125 
Q 48.875 64.0625 45.09375 64.984375 
Q 41.3125 65.921875 37.59375 65.921875 
Q 27.828125 65.921875 22.671875 59.328125 
Q 17.53125 52.734375 16.796875 39.40625 
Q 19.671875 43.65625 24.015625 45.921875 
Q 28.375 48.1875 33.59375 48.1875 
Q 44.578125 48.1875 50.953125 41.515625 
Q 57.328125 34.859375 57.328125 23.390625 
Q 57.328125 12.15625 50.6875 5.359375 
Q 44.046875 -1.421875 33.015625 -1.421875 
Q 20.359375 -1.421875 13.671875 8.265625 
Q 6.984375 17.96875 6.984375 36.375 
Q 6.984375 53.65625 15.1875 63.9375 
Q 23.390625 74.21875 37.203125 74.21875 
Q 40.921875 74.21875 44.703125 73.484375 
Q 48.484375 72.75 52.59375 71.296875 
z
" id="DejaVuSans-54"/>
       <path d="M 31.78125 34.625 
Q 24.75 34.625 20.71875 30.859375 
Q 16.703125 27.09375 16.703125 20.515625 
Q 16.703125 13.921875 20.71875 10.15625 
Q 24.75 6.390625 31.78125 6.390625 
Q 38.8125 6.390625 42.859375 10.171875 
Q 46.921875 13.96875 46.921875 20.515625 
Q 46.921875 27.09375 42.890625 30.859375 
Q 38.875 34.625 31.78125 34.625 
z
M 21.921875 38.8125 
Q 15.578125 40.375 12.03125 44.71875 
Q 8.5 49.078125 8.5 55.328125 
Q 8.5 64.0625 14.71875 69.140625 
Q 20.953125 74.21875 31.78125 74.21875 
Q 42.671875 74.21875 48.875 69.140625 
Q 55.078125 64.0625 55.078125 55.328125 
Q 55.078125 49.078125 51.53125 44.71875 
Q 48 40.375 41.703125 38.8125 
Q 48.828125 37.15625 52.796875 32.3125 
Q 56.78125 27.484375 56.78125 20.515625 
Q 56.78125 9.90625 50.3125 4.234375 
Q 43.84375 -1.421875 31.78125 -1.421875 
Q 19.734375 -1.421875 13.25 4.234375 
Q 6.78125 9.90625 6.78125 20.515625 
Q 6.78125 27.484375 10.78125 32.3125 
Q 14.796875 37.15625 21.921875 38.8125 
z
M 18.3125 54.390625 
Q 18.3125 48.734375 21.84375 45.5625 
Q 25.390625 42.390625 31.78125 42.390625 
Q 38.140625 42.390625 41.71875 45.5625 
Q 45.3125 48.734375 45.3125 54.390625 
Q 45.3125 60.0625 41.71875 63.234375 
Q 38.140625 66.40625 31.78125 66.40625 
Q 25.390625 66.40625 21.84375 63.234375 
Q 18.3125 60.0625 18.3125 54.390625 
z
" id="DejaVuSans-56"/>
       <path d="M 12.40625 8.296875 
L 28.515625 8.296875 
L 28.515625 63.921875 
L 10.984375 60.40625 
L 10.984375 69.390625 
L 28.421875 72.90625 
L 38.28125 72.90625 
L 38.28125 8.296875 
L 54.390625 8.296875 
L 54.390625 0 
L 12.40625 0 
z
" id="DejaVuSans-49"/>
      </defs>
      <use xlink:href="#DejaVuSans-43"/>
      <use x="83.789062" xlink:href="#DejaVuSans-50"/>
      <use x="147.412109" xlink:href="#DejaVuSans-46"/>
      <use x="179.199219" xlink:href="#DejaVuSans-52"/>
      <use x="242.822266" xlink:href="#DejaVuSans-54"/>
      <use x="306.445312" xlink:href="#DejaVuSans-56"/>
      <use x="370.068359" xlink:href="#DejaVuSans-49"/>
      <use x="433.691406" xlink:href="#DejaVuSans-101"/>
      <use x="495.214844" xlink:href="#DejaVuSans-54"/>
     </g>
    </g>
   </g>
   <g id="matplotlib.axis_2">
    <g id="ytick_1">
     <g id="line2d_17">
      <path clip-path="url(#p1412b2073d)" d="M 46.4065 352.4901 
L 883.4065 352.4901 
" style="fill:none;stroke:#b0b0b0;stroke-linecap:square;stroke-width:0.8;"/>
     </g>
     <g id="line2d_18"/>
     <g id="text_11">
      <!-- 0 -->
      <g style="fill:#565656;" transform="translate(32.7715 357.049162)scale(0.12 -0.12)">
       <use xlink:href="#DejaVuSans-48"/>
      </g>
     </g>
    </g>
    <g id="ytick_2">
     <g id="line2d_19">
      <path clip-path="url(#p1412b2073d)" d="M 46.4065 316.2501 
L 883.4065 316.2501 
" style="fill:none;stroke:#b0b0b0;stroke-linecap:square;stroke-width:0.8;"/>
     </g>
     <g id="line2d_20"/>
     <g id="text_12">
      <!-- 10 -->
      <g style="fill:#565656;" transform="translate(25.1365 320.809162)scale(0.12 -0.12)">
       <use xlink:href="#DejaVuSans-49"/>
       <use x="63.623047" xlink:href="#DejaVuSans-48"/>
      </g>
     </g>
    </g>
    <g id="ytick_3">
     <g id="line2d_21">
      <path clip-path="url(#p1412b2073d)" d="M 46.4065 280.0101 
L 883.4065 280.0101 
" style="fill:none;stroke:#b0b0b0;stroke-linecap:square;stroke-width:0.8;"/>
     </g>
     <g id="line2d_22"/>
     <g id="text_13">
      <!-- 20 -->
      <g style="fill:#565656;" transform="translate(25.1365 284.569162)scale(0.12 -0.12)">
       <use xlink:href="#DejaVuSans-50"/>
       <use x="63.623047" xlink:href="#DejaVuSans-48"/>
      </g>
     </g>
    </g>
    <g id="ytick_4">
     <g id="line2d_23">
      <path clip-path="url(#p1412b2073d)" d="M 46.4065 243.7701 
L 883.4065 243.7701 
" style="fill:none;stroke:#b0b0b0;stroke-linecap:square;stroke-width:0.8;"/>
     </g>
     <g id="line2d_24"/>
     <g id="text_14">
      <!-- 30 -->
      <g style="fill:#565656;" transform="translate(25.1365 248.329162)scale(0.12 -0.12)">
       <use xlink:href="#DejaVuSans-51"/>
       <use x="63.623047" xlink:href="#DejaVuSans-48"/>
      </g>
     </g>
    </g>
    <g id="ytick_5">
     <g id="line2d_25">
      <path clip-path="url(#p1412b2073d)" d="M 46.4065 207.5301 
L 883.4065 207.5301 
" style="fill:none;stroke:#b0b0b0;stroke-linecap:square;stroke-width:0.8;"/>
     </g>
     <g id="line2d_26"/>
     <g id="text_15">
      <!-- 40 -->
      <g style="fill:#565656;" transform="translate(25.1365 212.089162)scale(0.12 -0.12)">
       <use xlink:href="#DejaVuSans-52"/>
       <use x="63.623047" xlink:href="#DejaVuSans-48"/>
      </g>
     </g>
    </g>
    <g id="ytick_6">
     <g id="line2d_27">
      <path clip-path="url(#p1412b2073d)" d="M 46.4065 171.2901 
L 883.4065 171.2901 
" style="fill:none;stroke:#b0b0b0;stroke-linecap:square;stroke-width:0.8;"/>
     </g>
     <g id="line2d_28"/>
     <g id="text_16">
      <!-- 50 -->
      <g style="fill:#565656;" transform="translate(25.1365 175.849162)scale(0.12 -0.12)">
       <use xlink:href="#DejaVuSans-53"/>
       <use x="63.623047" xlink:href="#DejaVuSans-48"/>
      </g>
     </g>
    </g>
    <g id="ytick_7">
     <g id="line2d_29">
      <path clip-path="url(#p1412b2073d)" d="M 46.4065 135.0501 
L 883.4065 135.0501 
" style="fill:none;stroke:#b0b0b0;stroke-linecap:square;stroke-width:0.8;"/>
     </g>
     <g id="line2d_30"/>
     <g id="text_17">
      <!-- 60 -->
      <g style="fill:#565656;" transform="translate(25.1365 139.609162)scale(0.12 -0.12)">
       <use xlink:href="#DejaVuSans-54"/>
       <use x="63.623047" xlink:href="#DejaVuSans-48"/>
      </g>
     </g>
    </g>
    <g id="ytick_8">
     <g id="line2d_31">
      <path clip-path="url(#p1412b2073d)" d="M 46.4065 98.8101 
L 883.4065 98.8101 
" style="fill:none;stroke:#b0b0b0;stroke-linecap:square;stroke-width:0.8;"/>
     </g>
     <g id="line2d_32"/>
     <g id="text_18">
      <!-- 70 -->
      <g style="fill:#565656;" transform="translate(25.1365 103.369162)scale(0.12 -0.12)">
       <use xlink:href="#DejaVuSans-55"/>
       <use x="63.623047" xlink:href="#DejaVuSans-48"/>
      </g>
     </g>
    </g>
    <g id="ytick_9">
     <g id="line2d_33">
      <path clip-path="url(#p1412b2073d)" d="M 46.4065 62.5701 
L 883.4065 62.5701 
" style="fill:none;stroke:#b0b0b0;stroke-linecap:square;stroke-width:0.8;"/>
     </g>
     <g id="line2d_34"/>
     <g id="text_19">
      <!-- 80 -->
      <g style="fill:#565656;" transform="translate(25.1365 67.129162)scale(0.12 -0.12)">
       <use xlink:href="#DejaVuSans-56"/>
       <use x="63.623047" xlink:href="#DejaVuSans-48"/>
      </g>
     </g>
    </g>
    <g id="ytick_10">
     <g id="line2d_35">
      <path clip-path="url(#p1412b2073d)" d="M 46.4065 26.3301 
L 883.4065 26.3301 
" style="fill:none;stroke:#b0b0b0;stroke-linecap:square;stroke-width:0.8;"/>
     </g>
     <g id="line2d_36"/>
     <g id="text_20">
      <!-- 90 -->
      <g style="fill:#565656;" transform="translate(25.1365 30.889162)scale(0.12 -0.12)">
       <defs>
        <path d="M 10.984375 1.515625 
L 10.984375 10.5 
Q 14.703125 8.734375 18.5 7.8125 
Q 22.3125 6.890625 25.984375 6.890625 
Q 35.75 6.890625 40.890625 13.453125 
Q 46.046875 20.015625 46.78125 33.40625 
Q 43.953125 29.203125 39.59375 26.953125 
Q 35.25 24.703125 29.984375 24.703125 
Q 19.046875 24.703125 12.671875 31.3125 
Q 6.296875 37.9375 6.296875 49.421875 
Q 6.296875 60.640625 12.9375 67.421875 
Q 19.578125 74.21875 30.609375 74.21875 
Q 43.265625 74.21875 49.921875 64.515625 
Q 56.59375 54.828125 56.59375 36.375 
Q 56.59375 19.140625 48.40625 8.859375 
Q 40.234375 -1.421875 26.421875 -1.421875 
Q 22.703125 -1.421875 18.890625 -0.6875 
Q 15.09375 0.046875 10.984375 1.515625 
z
M 30.609375 32.421875 
Q 37.25 32.421875 41.125 36.953125 
Q 45.015625 41.5 45.015625 49.421875 
Q 45.015625 57.28125 41.125 61.84375 
Q 37.25 66.40625 30.609375 66.40625 
Q 23.96875 66.40625 20.09375 61.84375 
Q 16.21875 57.28125 16.21875 49.421875 
Q 16.21875 41.5 20.09375 36.953125 
Q 23.96875 32.421875 30.609375 32.421875 
z
" id="DejaVuSans-57"/>
       </defs>
       <use xlink:href="#DejaVuSans-57"/>
       <use x="63.623047" xlink:href="#DejaVuSans-48"/>
      </g>
     </g>
    </g>
    <g id="text_21">
     <!-- altitude (deg) -->
     <g transform="translate(18.14175 238.510725)rotate(-90)scale(0.144 -0.144)">
      <defs>
       <path d="M 34.28125 27.484375 
Q 23.390625 27.484375 19.1875 25 
Q 14.984375 22.515625 14.984375 16.5 
Q 14.984375 11.71875 18.140625 8.90625 
Q 21.296875 6.109375 26.703125 6.109375 
Q 34.1875 6.109375 38.703125 11.40625 
Q 43.21875 16.703125 43.21875 25.484375 
L 43.21875 27.484375 
z
M 52.203125 31.203125 
L 52.203125 0 
L 43.21875 0 
L 43.21875 8.296875 
Q 40.140625 3.328125 35.546875 0.953125 
Q 30.953125 -1.421875 24.3125 -1.421875 
Q 15.921875 -1.421875 10.953125 3.296875 
Q 6 8.015625 6 15.921875 
Q 6 25.140625 12.171875 29.828125 
Q 18.359375 34.515625 30.609375 34.515625 
L 43.21875 34.515625 
L 43.21875 35.40625 
Q 43.21875 41.609375 39.140625 45 
Q 35.0625 48.390625 27.6875 48.390625 
Q 23 48.390625 18.546875 47.265625 
Q 14.109375 46.140625 10.015625 43.890625 
L 10.015625 52.203125 
Q 14.9375 54.109375 19.578125 55.046875 
Q 24.21875 56 28.609375 56 
Q 40.484375 56 46.34375 49.84375 
Q 52.203125 43.703125 52.203125 31.203125 
z
" id="DejaVuSans-97"/>
       <path d="M 9.421875 75.984375 
L 18.40625 75.984375 
L 18.40625 0 
L 9.421875 0 
z
" id="DejaVuSans-108"/>
       <path d="M 8.5 21.578125 
L 8.5 54.6875 
L 17.484375 54.6875 
L 17.484375 21.921875 
Q 17.484375 14.15625 20.5 10.265625 
Q 23.53125 6.390625 29.59375 6.390625 
Q 36.859375 6.390625 41.078125 11.03125 
Q 45.3125 15.671875 45.3125 23.6875 
L 45.3125 54.6875 
L 54.296875 54.6875 
L 54.296875 0 
L 45.3125 0 
L 45.3125 8.40625 
Q 42.046875 3.421875 37.71875 1 
Q 33.40625 -1.421875 27.6875 -1.421875 
Q 18.265625 -1.421875 13.375 4.4375 
Q 8.5 10.296875 8.5 21.578125 
z
M 31.109375 56 
z
" id="DejaVuSans-117"/>
       <path d="M 45.40625 46.390625 
L 45.40625 75.984375 
L 54.390625 75.984375 
L 54.390625 0 
L 45.40625 0 
L 45.40625 8.203125 
Q 42.578125 3.328125 38.25 0.953125 
Q 33.9375 -1.421875 27.875 -1.421875 
Q 17.96875 -1.421875 11.734375 6.484375 
Q 5.515625 14.40625 5.515625 27.296875 
Q 5.515625 40.1875 11.734375 48.09375 
Q 17.96875 56 27.875 56 
Q 33.9375 56 38.25 53.625 
Q 42.578125 51.265625 45.40625 46.390625 
z
M 14.796875 27.296875 
Q 14.796875 17.390625 18.875 11.75 
Q 22.953125 6.109375 30.078125 6.109375 
Q 37.203125 6.109375 41.296875 11.75 
Q 45.40625 17.390625 45.40625 27.296875 
Q 45.40625 37.203125 41.296875 42.84375 
Q 37.203125 48.484375 30.078125 48.484375 
Q 22.953125 48.484375 18.875 42.84375 
Q 14.796875 37.203125 14.796875 27.296875 
z
" id="DejaVuSans-100"/>
       <path d="M 45.40625 27.984375 
Q 45.40625 37.75 41.375 43.109375 
Q 37.359375 48.484375 30.078125 48.484375 
Q 22.859375 48.484375 18.828125 43.109375 
Q 14.796875 37.75 14.796875 27.984375 
Q 14.796875 18.265625 18.828125 12.890625 
Q 22.859375 7.515625 30.078125 7.515625 
Q 37.359375 7.515625 41.375 12.890625 
Q 45.40625 18.265625 45.40625 27.984375 
z
M 54.390625 6.78125 
Q 54.390625 -7.171875 48.1875 -13.984375 
Q 42 -20.796875 29.203125 -20.796875 
Q 24.46875 -20.796875 20.265625 -20.09375 
Q 16.0625 -19.390625 12.109375 -17.921875 
L 12.109375 -9.1875 
Q 16.0625 -11.328125 19.921875 -12.34375 
Q 23.78125 -13.375 27.78125 -13.375 
Q 36.625 -13.375 41.015625 -8.765625 
Q 45.40625 -4.15625 45.40625 5.171875 
L 45.40625 9.625 
Q 42.625 4.78125 38.28125 2.390625 
Q 33.9375 0 27.875 0 
Q 17.828125 0 11.671875 7.65625 
Q 5.515625 15.328125 5.515625 27.984375 
Q 5.515625 40.671875 11.671875 48.328125 
Q 17.828125 56 27.875 56 
Q 33.9375 56 38.28125 53.609375 
Q 42.625 51.21875 45.40625 46.390625 
L 45.40625 54.6875 
L 54.390625 54.6875 
z
" id="DejaVuSans-103"/>
      </defs>
      <use xlink:href="#DejaVuSans-97"/>
      <use x="61.279297" xlink:href="#DejaVuSans-108"/>
      <use x="89.0625" xlink:href="#DejaVuSans-116"/>
      <use x="128.271484" xlink:href="#DejaVuSans-105"/>
      <use x="156.054688" xlink:href="#DejaVuSans-116"/>
      <use x="195.263672" xlink:href="#DejaVuSans-117"/>
      <use x="258.642578" xlink:href="#DejaVuSans-100"/>
      <use x="322.119141" xlink:href="#DejaVuSans-101"/>
      <use x="383.642578" xlink:href="#DejaVuSans-32"/>
      <use x="415.429688" xlink:href="#DejaVuSans-40"/>
      <use x="454.443359" xlink:href="#DejaVuSans-100"/>
      <use x="517.919922" xlink:href="#DejaVuSans-101"/>
      <use x="579.443359" xlink:href="#DejaVuSans-103"/>
      <use x="642.919922" xlink:href="#DejaVuSans-41"/>
     </g>
    </g>
   </g>
   <g id="PolyCollection_5">
    <defs>
     <path d="M 84.451955 -564.9075 
L 84.451955 -528.6675 
L 92.137905 -528.6675 
L 99.823855 -528.6675 
L 107.509806 -528.6675 
L 115.195756 -528.6675 
L 122.881706 -528.6675 
L 130.567657 -528.6675 
L 138.253608 -528.6675 
L 145.939558 -528.6675 
L 153.625508 -528.6675 
L 161.311459 -528.6675 
L 168.997409 -528.6675 
L 176.68336 -528.6675 
L 184.36931 -528.6675 
L 192.05526 -528.6675 
L 199.741211 -528.6675 
L 207.427161 -528.6675 
L 215.113111 -528.6675 
L 222.799062 -528.6675 
L 230.485013 -528.6675 
L 238.170963 -528.6675 
L 245.856913 -528.6675 
L 253.542864 -528.6675 
L 261.228814 -528.6675 
L 268.914765 -528.6675 
L 276.600715 -528.6675 
L 284.286665 -528.6675 
L 291.972616 -528.6675 
L 299.658566 -528.6675 
L 307.344517 -528.6675 
L 315.030467 -528.6675 
L 322.716417 -528.6675 
L 330.402368 -528.6675 
L 338.088318 -528.6675 
L 345.774269 -528.6675 
L 353.460219 -528.6675 
L 361.146169 -528.6675 
L 368.83212 -528.6675 
L 376.51807 -528.6675 
L 384.204021 -528.6675 
L 391.889971 -528.6675 
L 399.575922 -528.6675 
L 407.261872 -528.6675 
L 414.947822 -528.6675 
L 422.633773 -528.6675 
L 430.319723 -528.6675 
L 438.005674 -528.6675 
L 445.691624 -528.6675 
L 453.377574 -528.6675 
L 461.063525 -528.6675 
L 468.749475 -528.6675 
L 476.435426 -528.6675 
L 484.121376 -528.6675 
L 491.807326 -528.6675 
L 499.493277 -528.6675 
L 507.179227 -528.6675 
L 514.865178 -528.6675 
L 522.551128 -528.6675 
L 530.237078 -528.6675 
L 537.923029 -528.6675 
L 545.608979 -528.6675 
L 553.29493 -528.6675 
L 560.98088 -528.6675 
L 568.666831 -528.6675 
L 576.352781 -528.6675 
L 584.038731 -528.6675 
L 591.724682 -528.6675 
L 599.410632 -528.6675 
L 607.096583 -528.6675 
L 614.782533 -528.6675 
L 622.468483 -528.6675 
L 630.154434 -528.6675 
L 637.840384 -528.6675 
L 645.526335 -528.6675 
L 653.212285 -528.6675 
L 660.898236 -528.6675 
L 668.584186 -528.6675 
L 676.270136 -528.6675 
L 683.956087 -528.6675 
L 691.642037 -528.6675 
L 699.327987 -528.6675 
L 707.013938 -528.6675 
L 714.699888 -528.6675 
L 722.385839 -528.6675 
L 730.071789 -528.6675 
L 737.75774 -528.6675 
L 745.44369 -528.6675 
L 753.129641 -528.6675 
L 760.815591 -528.6675 
L 768.501541 -528.6675 
L 776.187492 -528.6675 
L 783.873442 -528.6675 
L 791.559392 -528.6675 
L 799.245343 -528.6675 
L 806.931293 -528.6675 
L 814.617244 -528.6675 
L 822.303194 -528.6675 
L 829.989145 -528.6675 
L 837.675095 -528.6675 
L 845.361046 -528.6675 
L 845.361046 -564.9075 
L 845.361046 -564.9075 
L 837.675095 -564.9075 
L 829.989145 -564.9075 
L 822.303194 -564.9075 
L 814.617244 -564.9075 
L 806.931293 -564.9075 
L 799.245343 -564.9075 
L 791.559392 -564.9075 
L 783.873442 -564.9075 
L 776.187492 -564.9075 
L 768.501541 -564.9075 
L 760.815591 -564.9075 
L 753.129641 -564.9075 
L 745.44369 -564.9075 
L 737.75774 -564.9075 
L 730.071789 -564.9075 
L 722.385839 -564.9075 
L 714.699888 -564.9075 
L 707.013938 -564.9075 
L 699.327987 -564.9075 
L 691.642037 -564.9075 
L 683.956087 -564.9075 
L 676.270136 -564.9075 
L 668.584186 -564.9075 
L 660.898236 -564.9075 
L 653.212285 -564.9075 
L 645.526335 -564.9075 
L 637.840384 -564.9075 
L 630.154434 -564.9075 
L 622.468483 -564.9075 
L 614.782533 -564.9075 
L 607.096583 -564.9075 
L 599.410632 -564.9075 
L 591.724682 -564.9075 
L 584.038731 -564.9075 
L 576.352781 -564.9075 
L 568.666831 -564.9075 
L 560.98088 -564.9075 
L 553.29493 -564.9075 
L 545.608979 -564.9075 
L 537.923029 -564.9075 
L 530.237078 -564.9075 
L 522.551128 -564.9075 
L 514.865178 -564.9075 
L 507.179227 -564.9075 
L 499.493277 -564.9075 
L 491.807326 -564.9075 
L 484.121376 -564.9075 
L 476.435426 -564.9075 
L 468.749475 -564.9075 
L 461.063525 -564.9075 
L 453.377574 -564.9075 
L 445.691624 -564.9075 
L 438.005674 -564.9075 
L 430.319723 -564.9075 
L 422.633773 -564.9075 
L 414.947822 -564.9075 
L 407.261872 -564.9075 
L 399.575922 -564.9075 
L 391.889971 -564.9075 
L 384.204021 -564.9075 
L 376.51807 -564.9075 
L 368.83212 -564.9075 
L 361.146169 -564.9075 
L 353.460219 -564.9075 
L 345.774269 -564.9075 
L 338.088318 -564.9075 
L 330.402368 -564.9075 
L 322.716417 -564.9075 
L 315.030467 -564.9075 
L 307.344517 -564.9075 
L 299.658566 -564.9075 
L 291.972616 -564.9075 
L 284.286665 -564.9075 
L 276.600715 -564.9075 
L 268.914765 -564.9075 
L 261.228814 -564.9075 
L 253.542864 -564.9075 
L 245.856913 -564.9075 
L 238.170963 -564.9075 
L 230.485013 -564.9075 
L 222.799062 -564.9075 
L 215.113111 -564.9075 
L 207.427161 -564.9075 
L 199.741211 -564.9075 
L 192.05526 -564.9075 
L 184.36931 -564.9075 
L 176.68336 -564.9075 
L 168.997409 -564.9075 
L 161.311459 -564.9075 
L 153.625508 -564.9075 
L 145.939558 -564.9075 
L 138.253608 -564.9075 
L 130.567657 -564.9075 
L 122.881706 -564.9075 
L 115.195756 -564.9075 
L 107.509806 -564.9075 
L 99.823855 -564.9075 
L 92.137905 -564.9075 
L 84.451955 -564.9075 
z
" id="m602fddd44c" style="stroke:#000000;"/>
    </defs>
    <g clip-path="url(#p1412b2073d)">
     <use style="stroke:#000000;" x="0" xlink:href="#m602fddd44c" y="881.1576"/>
    </g>
   </g>
   <g id="PolyCollection_6">
    <defs>
     <path d="M 84.451955 -854.8275 
L 84.451955 -735.2355 
L 92.137905 -735.2355 
L 99.823855 -735.2355 
L 107.509806 -735.2355 
L 115.195756 -735.2355 
L 122.881706 -735.2355 
L 130.567657 -735.2355 
L 138.253608 -735.2355 
L 145.939558 -735.2355 
L 153.625508 -735.2355 
L 161.311459 -735.2355 
L 168.997409 -735.2355 
L 176.68336 -735.2355 
L 184.36931 -735.2355 
L 192.05526 -735.2355 
L 199.741211 -735.2355 
L 207.427161 -735.2355 
L 215.113111 -735.2355 
L 222.799062 -735.2355 
L 230.485013 -735.2355 
L 238.170963 -735.2355 
L 245.856913 -735.2355 
L 253.542864 -735.2355 
L 261.228814 -735.2355 
L 268.914765 -735.2355 
L 276.600715 -735.2355 
L 284.286665 -735.2355 
L 291.972616 -735.2355 
L 299.658566 -735.2355 
L 307.344517 -735.2355 
L 315.030467 -735.2355 
L 322.716417 -735.2355 
L 330.402368 -735.2355 
L 338.088318 -735.2355 
L 345.774269 -735.2355 
L 353.460219 -735.2355 
L 361.146169 -735.2355 
L 368.83212 -735.2355 
L 376.51807 -735.2355 
L 384.204021 -735.2355 
L 391.889971 -735.2355 
L 399.575922 -735.2355 
L 407.261872 -735.2355 
L 414.947822 -735.2355 
L 422.633773 -735.2355 
L 430.319723 -735.2355 
L 438.005674 -735.2355 
L 445.691624 -735.2355 
L 453.377574 -735.2355 
L 461.063525 -735.2355 
L 468.749475 -735.2355 
L 476.435426 -735.2355 
L 484.121376 -735.2355 
L 491.807326 -735.2355 
L 499.493277 -735.2355 
L 507.179227 -735.2355 
L 514.865178 -735.2355 
L 522.551128 -735.2355 
L 530.237078 -735.2355 
L 537.923029 -735.2355 
L 545.608979 -735.2355 
L 553.29493 -735.2355 
L 560.98088 -735.2355 
L 568.666831 -735.2355 
L 576.352781 -735.2355 
L 584.038731 -735.2355 
L 591.724682 -735.2355 
L 599.410632 -735.2355 
L 607.096583 -735.2355 
L 614.782533 -735.2355 
L 622.468483 -735.2355 
L 630.154434 -735.2355 
L 637.840384 -735.2355 
L 645.526335 -735.2355 
L 653.212285 -735.2355 
L 660.898236 -735.2355 
L 668.584186 -735.2355 
L 676.270136 -735.2355 
L 683.956087 -735.2355 
L 691.642037 -735.2355 
L 699.327987 -735.2355 
L 707.013938 -735.2355 
L 714.699888 -735.2355 
L 722.385839 -735.2355 
L 730.071789 -735.2355 
L 737.75774 -735.2355 
L 745.44369 -735.2355 
L 753.129641 -735.2355 
L 760.815591 -735.2355 
L 768.501541 -735.2355 
L 776.187492 -735.2355 
L 783.873442 -735.2355 
L 791.559392 -735.2355 
L 799.245343 -735.2355 
L 806.931293 -735.2355 
L 814.617244 -735.2355 
L 822.303194 -735.2355 
L 829.989145 -735.2355 
L 837.675095 -735.2355 
L 845.361046 -735.2355 
L 845.361046 -854.8275 
L 845.361046 -854.8275 
L 837.675095 -854.8275 
L 829.989145 -854.8275 
L 822.303194 -854.8275 
L 814.617244 -854.8275 
L 806.931293 -854.8275 
L 799.245343 -854.8275 
L 791.559392 -854.8275 
L 783.873442 -854.8275 
L 776.187492 -854.8275 
L 768.501541 -854.8275 
L 760.815591 -854.8275 
L 753.129641 -854.8275 
L 745.44369 -854.8275 
L 737.75774 -854.8275 
L 730.071789 -854.8275 
L 722.385839 -854.8275 
L 714.699888 -854.8275 
L 707.013938 -854.8275 
L 699.327987 -854.8275 
L 691.642037 -854.8275 
L 683.956087 -854.8275 
L 676.270136 -854.8275 
L 668.584186 -854.8275 
L 660.898236 -854.8275 
L 653.212285 -854.8275 
L 645.526335 -854.8275 
L 637.840384 -854.8275 
L 630.154434 -854.8275 
L 622.468483 -854.8275 
L 614.782533 -854.8275 
L 607.096583 -854.8275 
L 599.410632 -854.8275 
L 591.724682 -854.8275 
L 584.038731 -854.8275 
L 576.352781 -854.8275 
L 568.666831 -854.8275 
L 560.98088 -854.8275 
L 553.29493 -854.8275 
L 545.608979 -854.8275 
L 537.923029 -854.8275 
L 530.237078 -854.8275 
L 522.551128 -854.8275 
L 514.865178 -854.8275 
L 507.179227 -854.8275 
L 499.493277 -854.8275 
L 491.807326 -854.8275 
L 484.121376 -854.8275 
L 476.435426 -854.8275 
L 468.749475 -854.8275 
L 461.063525 -854.8275 
L 453.377574 -854.8275 
L 445.691624 -854.8275 
L 438.005674 -854.8275 
L 430.319723 -854.8275 
L 422.633773 -854.8275 
L 414.947822 -854.8275 
L 407.261872 -854.8275 
L 399.575922 -854.8275 
L 391.889971 -854.8275 
L 384.204021 -854.8275 
L 376.51807 -854.8275 
L 368.83212 -854.8275 
L 361.146169 -854.8275 
L 353.460219 -854.8275 
L 345.774269 -854.8275 
L 338.088318 -854.8275 
L 330.402368 -854.8275 
L 322.716417 -854.8275 
L 315.030467 -854.8275 
L 307.344517 -854.8275 
L 299.658566 -854.8275 
L 291.972616 -854.8275 
L 284.286665 -854.8275 
L 276.600715 -854.8275 
L 268.914765 -854.8275 
L 261.228814 -854.8275 
L 253.542864 -854.8275 
L 245.856913 -854.8275 
L 238.170963 -854.8275 
L 230.485013 -854.8275 
L 222.799062 -854.8275 
L 215.113111 -854.8275 
L 207.427161 -854.8275 
L 199.741211 -854.8275 
L 192.05526 -854.8275 
L 184.36931 -854.8275 
L 176.68336 -854.8275 
L 168.997409 -854.8275 
L 161.311459 -854.8275 
L 153.625508 -854.8275 
L 145.939558 -854.8275 
L 138.253608 -854.8275 
L 130.567657 -854.8275 
L 122.881706 -854.8275 
L 115.195756 -854.8275 
L 107.509806 -854.8275 
L 99.823855 -854.8275 
L 92.137905 -854.8275 
L 84.451955 -854.8275 
z
" id="m10fbd48bc9" style="stroke:#ffff00;stroke-opacity:0.2;"/>
    </defs>
    <g clip-path="url(#p1412b2073d)">
     <use style="fill:#ffff00;fill-opacity:0.2;stroke:#ffff00;stroke-opacity:0.2;" x="0" xlink:href="#m10fbd48bc9" y="881.1576"/>
    </g>
   </g>
   <g id="PolyCollection_7">
    <defs>
     <path d="M 84.451955 -735.2355 
L 84.451955 -659.1315 
L 92.137905 -659.1315 
L 99.823855 -659.1315 
L 107.509806 -659.1315 
L 115.195756 -659.1315 
L 122.881706 -659.1315 
L 130.567657 -659.1315 
L 138.253608 -659.1315 
L 145.939558 -659.1315 
L 153.625508 -659.1315 
L 161.311459 -659.1315 
L 168.997409 -659.1315 
L 176.68336 -659.1315 
L 184.36931 -659.1315 
L 192.05526 -659.1315 
L 199.741211 -659.1315 
L 207.427161 -659.1315 
L 215.113111 -659.1315 
L 222.799062 -659.1315 
L 230.485013 -659.1315 
L 238.170963 -659.1315 
L 245.856913 -659.1315 
L 253.542864 -659.1315 
L 261.228814 -659.1315 
L 268.914765 -659.1315 
L 276.600715 -659.1315 
L 284.286665 -659.1315 
L 291.972616 -659.1315 
L 299.658566 -659.1315 
L 307.344517 -659.1315 
L 315.030467 -659.1315 
L 322.716417 -659.1315 
L 330.402368 -659.1315 
L 338.088318 -659.1315 
L 345.774269 -659.1315 
L 353.460219 -659.1315 
L 361.146169 -659.1315 
L 368.83212 -659.1315 
L 376.51807 -659.1315 
L 384.204021 -659.1315 
L 391.889971 -659.1315 
L 399.575922 -659.1315 
L 407.261872 -659.1315 
L 414.947822 -659.1315 
L 422.633773 -659.1315 
L 430.319723 -659.1315 
L 438.005674 -659.1315 
L 445.691624 -659.1315 
L 453.377574 -659.1315 
L 461.063525 -659.1315 
L 468.749475 -659.1315 
L 476.435426 -659.1315 
L 484.121376 -659.1315 
L 491.807326 -659.1315 
L 499.493277 -659.1315 
L 507.179227 -659.1315 
L 514.865178 -659.1315 
L 522.551128 -659.1315 
L 530.237078 -659.1315 
L 537.923029 -659.1315 
L 545.608979 -659.1315 
L 553.29493 -659.1315 
L 560.98088 -659.1315 
L 568.666831 -659.1315 
L 576.352781 -659.1315 
L 584.038731 -659.1315 
L 591.724682 -659.1315 
L 599.410632 -659.1315 
L 607.096583 -659.1315 
L 614.782533 -659.1315 
L 622.468483 -659.1315 
L 630.154434 -659.1315 
L 637.840384 -659.1315 
L 645.526335 -659.1315 
L 653.212285 -659.1315 
L 660.898236 -659.1315 
L 668.584186 -659.1315 
L 676.270136 -659.1315 
L 683.956087 -659.1315 
L 691.642037 -659.1315 
L 699.327987 -659.1315 
L 707.013938 -659.1315 
L 714.699888 -659.1315 
L 722.385839 -659.1315 
L 730.071789 -659.1315 
L 737.75774 -659.1315 
L 745.44369 -659.1315 
L 753.129641 -659.1315 
L 760.815591 -659.1315 
L 768.501541 -659.1315 
L 776.187492 -659.1315 
L 783.873442 -659.1315 
L 791.559392 -659.1315 
L 799.245343 -659.1315 
L 806.931293 -659.1315 
L 814.617244 -659.1315 
L 822.303194 -659.1315 
L 829.989145 -659.1315 
L 837.675095 -659.1315 
L 845.361046 -659.1315 
L 845.361046 -735.2355 
L 845.361046 -735.2355 
L 837.675095 -735.2355 
L 829.989145 -735.2355 
L 822.303194 -735.2355 
L 814.617244 -735.2355 
L 806.931293 -735.2355 
L 799.245343 -735.2355 
L 791.559392 -735.2355 
L 783.873442 -735.2355 
L 776.187492 -735.2355 
L 768.501541 -735.2355 
L 760.815591 -735.2355 
L 753.129641 -735.2355 
L 745.44369 -735.2355 
L 737.75774 -735.2355 
L 730.071789 -735.2355 
L 722.385839 -735.2355 
L 714.699888 -735.2355 
L 707.013938 -735.2355 
L 699.327987 -735.2355 
L 691.642037 -735.2355 
L 683.956087 -735.2355 
L 676.270136 -735.2355 
L 668.584186 -735.2355 
L 660.898236 -735.2355 
L 653.212285 -735.2355 
L 645.526335 -735.2355 
L 637.840384 -735.2355 
L 630.154434 -735.2355 
L 622.468483 -735.2355 
L 614.782533 -735.2355 
L 607.096583 -735.2355 
L 599.410632 -735.2355 
L 591.724682 -735.2355 
L 584.038731 -735.2355 
L 576.352781 -735.2355 
L 568.666831 -735.2355 
L 560.98088 -735.2355 
L 553.29493 -735.2355 
L 545.608979 -735.2355 
L 537.923029 -735.2355 
L 530.237078 -735.2355 
L 522.551128 -735.2355 
L 514.865178 -735.2355 
L 507.179227 -735.2355 
L 499.493277 -735.2355 
L 491.807326 -735.2355 
L 484.121376 -735.2355 
L 476.435426 -735.2355 
L 468.749475 -735.2355 
L 461.063525 -735.2355 
L 453.377574 -735.2355 
L 445.691624 -735.2355 
L 438.005674 -735.2355 
L 430.319723 -735.2355 
L 422.633773 -735.2355 
L 414.947822 -735.2355 
L 407.261872 -735.2355 
L 399.575922 -735.2355 
L 391.889971 -735.2355 
L 384.204021 -735.2355 
L 376.51807 -735.2355 
L 368.83212 -735.2355 
L 361.146169 -735.2355 
L 353.460219 -735.2355 
L 345.774269 -735.2355 
L 338.088318 -735.2355 
L 330.402368 -735.2355 
L 322.716417 -735.2355 
L 315.030467 -735.2355 
L 307.344517 -735.2355 
L 299.658566 -735.2355 
L 291.972616 -735.2355 
L 284.286665 -735.2355 
L 276.600715 -735.2355 
L 268.914765 -735.2355 
L 261.228814 -735.2355 
L 253.542864 -735.2355 
L 245.856913 -735.2355 
L 238.170963 -735.2355 
L 230.485013 -735.2355 
L 222.799062 -735.2355 
L 215.113111 -735.2355 
L 207.427161 -735.2355 
L 199.741211 -735.2355 
L 192.05526 -735.2355 
L 184.36931 -735.2355 
L 176.68336 -735.2355 
L 168.997409 -735.2355 
L 161.311459 -735.2355 
L 153.625508 -735.2355 
L 145.939558 -735.2355 
L 138.253608 -735.2355 
L 130.567657 -735.2355 
L 122.881706 -735.2355 
L 115.195756 -735.2355 
L 107.509806 -735.2355 
L 99.823855 -735.2355 
L 92.137905 -735.2355 
L 84.451955 -735.2355 
z
" id="m79f974d30d" style="stroke:#ffa500;stroke-opacity:0.2;"/>
    </defs>
    <g clip-path="url(#p1412b2073d)">
     <use style="fill:#ffa500;fill-opacity:0.2;stroke:#ffa500;stroke-opacity:0.2;" x="0" xlink:href="#m79f974d30d" y="881.1576"/>
    </g>
   </g>
   <g id="PolyCollection_8">
    <defs>
     <path d="M 84.451955 -659.1315 
L 84.451955 -564.9075 
L 92.137905 -564.9075 
L 99.823855 -564.9075 
L 107.509806 -564.9075 
L 115.195756 -564.9075 
L 122.881706 -564.9075 
L 130.567657 -564.9075 
L 138.253608 -564.9075 
L 145.939558 -564.9075 
L 153.625508 -564.9075 
L 161.311459 -564.9075 
L 168.997409 -564.9075 
L 176.68336 -564.9075 
L 184.36931 -564.9075 
L 192.05526 -564.9075 
L 199.741211 -564.9075 
L 207.427161 -564.9075 
L 215.113111 -564.9075 
L 222.799062 -564.9075 
L 230.485013 -564.9075 
L 238.170963 -564.9075 
L 245.856913 -564.9075 
L 253.542864 -564.9075 
L 261.228814 -564.9075 
L 268.914765 -564.9075 
L 276.600715 -564.9075 
L 284.286665 -564.9075 
L 291.972616 -564.9075 
L 299.658566 -564.9075 
L 307.344517 -564.9075 
L 315.030467 -564.9075 
L 322.716417 -564.9075 
L 330.402368 -564.9075 
L 338.088318 -564.9075 
L 345.774269 -564.9075 
L 353.460219 -564.9075 
L 361.146169 -564.9075 
L 368.83212 -564.9075 
L 376.51807 -564.9075 
L 384.204021 -564.9075 
L 391.889971 -564.9075 
L 399.575922 -564.9075 
L 407.261872 -564.9075 
L 414.947822 -564.9075 
L 422.633773 -564.9075 
L 430.319723 -564.9075 
L 438.005674 -564.9075 
L 445.691624 -564.9075 
L 453.377574 -564.9075 
L 461.063525 -564.9075 
L 468.749475 -564.9075 
L 476.435426 -564.9075 
L 484.121376 -564.9075 
L 491.807326 -564.9075 
L 499.493277 -564.9075 
L 507.179227 -564.9075 
L 514.865178 -564.9075 
L 522.551128 -564.9075 
L 530.237078 -564.9075 
L 537.923029 -564.9075 
L 545.608979 -564.9075 
L 553.29493 -564.9075 
L 560.98088 -564.9075 
L 568.666831 -564.9075 
L 576.352781 -564.9075 
L 584.038731 -564.9075 
L 591.724682 -564.9075 
L 599.410632 -564.9075 
L 607.096583 -564.9075 
L 614.782533 -564.9075 
L 622.468483 -564.9075 
L 630.154434 -564.9075 
L 637.840384 -564.9075 
L 645.526335 -564.9075 
L 653.212285 -564.9075 
L 660.898236 -564.9075 
L 668.584186 -564.9075 
L 676.270136 -564.9075 
L 683.956087 -564.9075 
L 691.642037 -564.9075 
L 699.327987 -564.9075 
L 707.013938 -564.9075 
L 714.699888 -564.9075 
L 722.385839 -564.9075 
L 730.071789 -564.9075 
L 737.75774 -564.9075 
L 745.44369 -564.9075 
L 753.129641 -564.9075 
L 760.815591 -564.9075 
L 768.501541 -564.9075 
L 776.187492 -564.9075 
L 783.873442 -564.9075 
L 791.559392 -564.9075 
L 799.245343 -564.9075 
L 806.931293 -564.9075 
L 814.617244 -564.9075 
L 822.303194 -564.9075 
L 829.989145 -564.9075 
L 837.675095 -564.9075 
L 845.361046 -564.9075 
L 845.361046 -659.1315 
L 845.361046 -659.1315 
L 837.675095 -659.1315 
L 829.989145 -659.1315 
L 822.303194 -659.1315 
L 814.617244 -659.1315 
L 806.931293 -659.1315 
L 799.245343 -659.1315 
L 791.559392 -659.1315 
L 783.873442 -659.1315 
L 776.187492 -659.1315 
L 768.501541 -659.1315 
L 760.815591 -659.1315 
L 753.129641 -659.1315 
L 745.44369 -659.1315 
L 737.75774 -659.1315 
L 730.071789 -659.1315 
L 722.385839 -659.1315 
L 714.699888 -659.1315 
L 707.013938 -659.1315 
L 699.327987 -659.1315 
L 691.642037 -659.1315 
L 683.956087 -659.1315 
L 676.270136 -659.1315 
L 668.584186 -659.1315 
L 660.898236 -659.1315 
L 653.212285 -659.1315 
L 645.526335 -659.1315 
L 637.840384 -659.1315 
L 630.154434 -659.1315 
L 622.468483 -659.1315 
L 614.782533 -659.1315 
L 607.096583 -659.1315 
L 599.410632 -659.1315 
L 591.724682 -659.1315 
L 584.038731 -659.1315 
L 576.352781 -659.1315 
L 568.666831 -659.1315 
L 560.98088 -659.1315 
L 553.29493 -659.1315 
L 545.608979 -659.1315 
L 537.923029 -659.1315 
L 530.237078 -659.1315 
L 522.551128 -659.1315 
L 514.865178 -659.1315 
L 507.179227 -659.1315 
L 499.493277 -659.1315 
L 491.807326 -659.1315 
L 484.121376 -659.1315 
L 476.435426 -659.1315 
L 468.749475 -659.1315 
L 461.063525 -659.1315 
L 453.377574 -659.1315 
L 445.691624 -659.1315 
L 438.005674 -659.1315 
L 430.319723 -659.1315 
L 422.633773 -659.1315 
L 414.947822 -659.1315 
L 407.261872 -659.1315 
L 399.575922 -659.1315 
L 391.889971 -659.1315 
L 384.204021 -659.1315 
L 376.51807 -659.1315 
L 368.83212 -659.1315 
L 361.146169 -659.1315 
L 353.460219 -659.1315 
L 345.774269 -659.1315 
L 338.088318 -659.1315 
L 330.402368 -659.1315 
L 322.716417 -659.1315 
L 315.030467 -659.1315 
L 307.344517 -659.1315 
L 299.658566 -659.1315 
L 291.972616 -659.1315 
L 284.286665 -659.1315 
L 276.600715 -659.1315 
L 268.914765 -659.1315 
L 261.228814 -659.1315 
L 253.542864 -659.1315 
L 245.856913 -659.1315 
L 238.170963 -659.1315 
L 230.485013 -659.1315 
L 222.799062 -659.1315 
L 215.113111 -659.1315 
L 207.427161 -659.1315 
L 199.741211 -659.1315 
L 192.05526 -659.1315 
L 184.36931 -659.1315 
L 176.68336 -659.1315 
L 168.997409 -659.1315 
L 161.311459 -659.1315 
L 153.625508 -659.1315 
L 145.939558 -659.1315 
L 138.253608 -659.1315 
L 130.567657 -659.1315 
L 122.881706 -659.1315 
L 115.195756 -659.1315 
L 107.509806 -659.1315 
L 99.823855 -659.1315 
L 92.137905 -659.1315 
L 84.451955 -659.1315 
z
" id="m92a7fce92f" style="stroke:#ff0000;stroke-opacity:0.2;"/>
    </defs>
    <g clip-path="url(#p1412b2073d)">
     <use style="fill:#ff0000;fill-opacity:0.2;stroke:#ff0000;stroke-opacity:0.2;" x="0" xlink:href="#m92a7fce92f" y="881.1576"/>
    </g>
   </g>
   <g id="line2d_37">
    <path clip-path="url(#p1412b2073d)" d="M 84.451955 461.797204 
L 92.137905 480.431875 
L 99.823855 498.495734 
L 107.509806 515.785769 
L 115.195756 532.016372 
L 122.881706 546.785471 
L 130.567657 559.53929 
L 138.253608 569.561438 
L 145.939558 576.042973 
L 153.625508 578.292317 
L 161.311459 576.029766 
L 168.997409 569.536604 
L 176.68336 559.505196 
L 184.36931 546.744447 
L 192.05526 531.970311 
L 199.741211 515.736076 
L 207.427161 498.443414 
L 215.113111 480.377641 
L 222.799062 461.741567 
L 230.485013 442.681298 
L 238.170963 423.304348 
L 245.856913 403.692014 
L 253.542864 383.907857 
L 261.228814 364.003633 
L 268.914765 344.023638 
L 276.600715 324.008097 
L 284.286665 303.996112 
L 291.972616 284.028566 
L 299.658566 264.151437 
L 307.344517 244.42005 
L 315.030467 224.905103 
L 322.716417 205.701777 
L 330.402368 186.944146 
L 338.088318 168.828652 
L 345.774269 151.652633 
L 353.460219 135.875698 
L 361.146169 122.205815 
L 368.83212 111.673733 
L 376.51807 105.549701 
L 384.204021 104.876183 
L 391.889971 109.785692 
L 399.575922 119.395863 
L 407.261872 132.431408 
L 414.947822 147.786698 
L 422.633773 164.682053 
L 430.319723 182.607757 
L 438.005674 201.234747 
L 445.691624 220.346991 
L 453.377574 239.798269 
L 461.063525 259.485792 
L 468.749475 279.334062 
L 476.435426 299.28476 
L 484.121376 319.29014 
L 491.807326 339.308438 
L 499.493277 359.300401 
L 507.179227 379.226324 
L 514.865178 399.043153 
L 522.551128 418.701234 
L 530.237078 438.14025 
L 537.923029 457.283733 
L 545.608979 476.031289 
L 553.29493 494.24729 
L 560.98088 511.744297 
L 568.666831 528.259214 
L 576.352781 543.421135 
L 584.038731 556.715076 
L 591.724682 567.461324 
L 599.410632 574.859661 
L 607.096583 578.164137 
L 614.782533 576.973274 
L 622.468483 571.437283 
L 630.154434 562.176397 
L 637.840384 549.996295 
L 645.526335 535.646018 
L 653.212285 519.71852 
L 660.898236 502.648726 
L 668.584186 484.746388 
L 676.270136 466.231337 
L 683.956087 447.261306 
L 691.642037 427.951711 
L 699.327987 408.389214 
L 707.013938 388.64099 
L 714.699888 368.761171 
L 722.385839 348.795499 
L 730.071789 328.784892 
L 737.75774 308.768462 
L 745.44369 288.786389 
L 753.129641 268.883096 
L 760.815591 249.111212 
L 768.501541 229.537085 
L 776.187492 210.248991 
L 783.873442 191.370015 
L 791.559392 173.078903 
L 799.245343 155.644329 
L 806.931293 139.480159 
L 814.617244 125.226596 
L 822.303194 113.835191 
L 829.989145 106.544364 
L 837.675095 104.515375 
L 845.361046 108.142032 
" style="fill:none;stroke:#0000ff;stroke-linecap:square;stroke-width:1.7;"/>
   </g>
   <g id="line2d_38">
    <path clip-path="url(#p1412b2073d)" d="M 84.451955 560.511435 
L 92.137905 540.720242 
L 99.823855 520.814066 
L 107.509806 500.860444 
L 115.195756 480.905629 
L 122.881706 460.985294 
L 130.567657 441.130197 
L 138.253608 421.369566 
L 145.939558 401.733456 
L 153.625508 382.254664 
L 161.311459 362.970575 
L 168.997409 343.925174 
L 176.68336 325.171436 
L 184.36931 306.774293 
L 192.05526 288.814409 
L 199.741211 271.393007 
L 207.427161 254.637937 
L 215.113111 238.711052 
L 222.799062 223.816491 
L 230.485013 210.208538 
L 238.170963 198.195909 
L 245.856913 188.136696 
L 253.542864 180.41586 
L 261.228814 175.398581 
L 268.914765 173.362745 
L 276.600715 174.431668 
L 284.286665 178.539751 
L 291.972616 185.45109 
L 299.658566 194.819952 
L 307.344517 206.261348 
L 315.030467 219.405311 
L 322.716417 233.926499 
L 330.402368 249.553781 
L 338.088318 266.068116 
L 345.774269 283.295366 
L 353.460219 301.097936 
L 361.146169 319.367044 
L 368.83212 338.016238 
L 376.51807 356.976204 
L 384.204021 376.1907 
L 391.889971 395.61336 
L 399.575922 415.205172 
L 407.261872 434.932386 
L 414.947822 454.764673 
L 422.633773 474.673317 
L 430.319723 494.629133 
L 438.005674 514.599643 
L 445.691624 534.544592 
L 453.377574 554.407786 
L 461.063525 574.100447 
L 468.749475 593.462997 
L 476.435426 612.165332 
L 484.121376 629.407879 
L 491.807326 642.966969 
L 499.493277 647.550155 
L 507.179227 639.831257 
L 514.865178 624.876882 
L 522.551128 607.101654 
L 530.237078 588.170639 
L 537.923029 568.699862 
L 545.608979 548.955386 
L 553.29493 529.071188 
L 560.98088 509.124621 
L 568.666831 489.166422 
L 576.352781 469.234231 
L 584.038731 449.359427 
L 591.724682 429.571025 
L 599.410632 409.898233 
L 607.096583 390.372428 
L 614.782533 371.028954 
L 622.468483 351.909023 
L 630.154434 333.06191 
L 637.840384 314.547647 
L 645.526335 296.440433 
L 653.212285 278.832973 
L 660.898236 261.84198 
L 668.584186 245.614937 
L 676.270136 230.337942 
L 683.956087 216.24372 
L 691.642037 203.617501 
L 699.327987 192.796154 
L 707.013938 184.153419 
L 714.699888 178.063594 
L 722.385839 174.842104 
L 730.071789 174.676447 
L 737.75774 177.576661 
L 745.44369 183.372487 
L 753.129641 191.758926 
L 760.815591 202.364777 
L 768.501541 214.814065 
L 776.187492 228.764952 
L 783.873442 243.926476 
L 791.559392 260.06052 
L 799.245343 276.976397 
L 806.931293 294.522916 
L 814.617244 312.580463 
L 822.303194 331.054106 
L 829.989145 349.867971 
L 837.675095 368.960786 
L 845.361046 388.282396 
" style="fill:none;stroke:#ff0000;stroke-linecap:square;stroke-width:1.7;"/>
   </g>
   <g id="line2d_39">
    <path clip-path="url(#p1412b2073d)" d="M 400.556545 352.4901 
L 400.556545 26.3301 
" style="fill:none;stroke:#ffffff;stroke-dasharray:12.8,3.2,2,3.2;stroke-dashoffset:0;stroke-width:2;"/>
   </g>
   <g id="line2d_40">
    <path clip-path="url(#p1412b2073d)" d="M 414.056209 352.4901 
L 414.056209 26.3301 
" style="fill:none;stroke:#ffffff;stroke-dasharray:12.8,3.2,2,3.2;stroke-dashoffset:0;stroke-width:2;"/>
   </g>
   <g id="line2d_41">
    <path clip-path="url(#p1412b2073d)" d="M 414.056209 352.4901 
L 414.056209 26.3301 
" style="fill:none;stroke:#ffffff;stroke-dasharray:12.8,3.2,2,3.2;stroke-dashoffset:0;stroke-width:2;"/>
   </g>
   <g id="line2d_42">
    <path clip-path="url(#p1412b2073d)" d="M 446.359182 352.4901 
L 446.359182 26.3301 
" style="fill:none;stroke:#ffffff;stroke-dasharray:12.8,3.2,2,3.2;stroke-dashoffset:0;stroke-width:2;"/>
   </g>
   <g id="line2d_43">
    <path clip-path="url(#p1412b2073d)" d="M 446.359182 352.4901 
L 446.359182 26.3301 
" style="fill:none;stroke:#ffffff;stroke-dasharray:12.8,3.2,2,3.2;stroke-dashoffset:0;stroke-width:2;"/>
   </g>
   <g id="line2d_44">
    <path clip-path="url(#p1412b2073d)" d="M 482.954055 352.4901 
L 482.954055 26.3301 
" style="fill:none;stroke:#ffffff;stroke-dasharray:12.8,3.2,2,3.2;stroke-dashoffset:0;stroke-width:2;"/>
   </g>
   <g id="patch_3">
    <path d="M 46.4065 352.4901 
L 46.4065 26.3301 
" style="fill:none;stroke:#aaaaaa;stroke-linecap:square;stroke-linejoin:miter;"/>
   </g>
   <g id="patch_4">
    <path d="M 883.4065 352.4901 
L 883.4065 26.3301 
" style="fill:none;stroke:#aaaaaa;stroke-linecap:square;stroke-linejoin:miter;"/>
   </g>
   <g id="patch_5">
    <path d="M 46.4065 352.4901 
L 883.4065 352.4901 
" style="fill:none;stroke:#aaaaaa;stroke-linecap:square;stroke-linejoin:miter;"/>
   </g>
   <g id="patch_6">
    <path d="M 46.4065 26.3301 
L 883.4065 26.3301 
" style="fill:none;stroke:#aaaaaa;stroke-linecap:square;stroke-linejoin:miter;"/>
   </g>
   <g id="text_22">
    <!-- Event998 - South -->
    <g transform="translate(389.9437 20.3301)scale(0.1728 -0.1728)">
     <defs>
      <path d="M 9.8125 72.90625 
L 55.90625 72.90625 
L 55.90625 64.59375 
L 19.671875 64.59375 
L 19.671875 43.015625 
L 54.390625 43.015625 
L 54.390625 34.71875 
L 19.671875 34.71875 
L 19.671875 8.296875 
L 56.78125 8.296875 
L 56.78125 0 
L 9.8125 0 
z
" id="DejaVuSans-69"/>
      <path d="M 2.984375 54.6875 
L 12.5 54.6875 
L 29.59375 8.796875 
L 46.6875 54.6875 
L 56.203125 54.6875 
L 35.6875 0 
L 23.484375 0 
z
" id="DejaVuSans-118"/>
      <path d="M 54.890625 33.015625 
L 54.890625 0 
L 45.90625 0 
L 45.90625 32.71875 
Q 45.90625 40.484375 42.875 44.328125 
Q 39.84375 48.1875 33.796875 48.1875 
Q 26.515625 48.1875 22.3125 43.546875 
Q 18.109375 38.921875 18.109375 30.90625 
L 18.109375 0 
L 9.078125 0 
L 9.078125 54.6875 
L 18.109375 54.6875 
L 18.109375 46.1875 
Q 21.34375 51.125 25.703125 53.5625 
Q 30.078125 56 35.796875 56 
Q 45.21875 56 50.046875 50.171875 
Q 54.890625 44.34375 54.890625 33.015625 
z
" id="DejaVuSans-110"/>
      <path d="M 4.890625 31.390625 
L 31.203125 31.390625 
L 31.203125 23.390625 
L 4.890625 23.390625 
z
" id="DejaVuSans-45"/>
      <path d="M 53.515625 70.515625 
L 53.515625 60.890625 
Q 47.90625 63.578125 42.921875 64.890625 
Q 37.9375 66.21875 33.296875 66.21875 
Q 25.25 66.21875 20.875 63.09375 
Q 16.5 59.96875 16.5 54.203125 
Q 16.5 49.359375 19.40625 46.890625 
Q 22.3125 44.4375 30.421875 42.921875 
L 36.375 41.703125 
Q 47.40625 39.59375 52.65625 34.296875 
Q 57.90625 29 57.90625 20.125 
Q 57.90625 9.515625 50.796875 4.046875 
Q 43.703125 -1.421875 29.984375 -1.421875 
Q 24.8125 -1.421875 18.96875 -0.25 
Q 13.140625 0.921875 6.890625 3.21875 
L 6.890625 13.375 
Q 12.890625 10.015625 18.65625 8.296875 
Q 24.421875 6.59375 29.984375 6.59375 
Q 38.421875 6.59375 43.015625 9.90625 
Q 47.609375 13.234375 47.609375 19.390625 
Q 47.609375 24.75 44.3125 27.78125 
Q 41.015625 30.8125 33.5 32.328125 
L 27.484375 33.5 
Q 16.453125 35.6875 11.515625 40.375 
Q 6.59375 45.0625 6.59375 53.421875 
Q 6.59375 63.09375 13.40625 68.65625 
Q 20.21875 74.21875 32.171875 74.21875 
Q 37.3125 74.21875 42.625 73.28125 
Q 47.953125 72.359375 53.515625 70.515625 
z
" id="DejaVuSans-83"/>
      <path d="M 30.609375 48.390625 
Q 23.390625 48.390625 19.1875 42.75 
Q 14.984375 37.109375 14.984375 27.296875 
Q 14.984375 17.484375 19.15625 11.84375 
Q 23.34375 6.203125 30.609375 6.203125 
Q 37.796875 6.203125 41.984375 11.859375 
Q 46.1875 17.53125 46.1875 27.296875 
Q 46.1875 37.015625 41.984375 42.703125 
Q 37.796875 48.390625 30.609375 48.390625 
z
M 30.609375 56 
Q 42.328125 56 49.015625 48.375 
Q 55.71875 40.765625 55.71875 27.296875 
Q 55.71875 13.875 49.015625 6.21875 
Q 42.328125 -1.421875 30.609375 -1.421875 
Q 18.84375 -1.421875 12.171875 6.21875 
Q 5.515625 13.875 5.515625 27.296875 
Q 5.515625 40.765625 12.171875 48.375 
Q 18.84375 56 30.609375 56 
z
" id="DejaVuSans-111"/>
      <path d="M 54.890625 33.015625 
L 54.890625 0 
L 45.90625 0 
L 45.90625 32.71875 
Q 45.90625 40.484375 42.875 44.328125 
Q 39.84375 48.1875 33.796875 48.1875 
Q 26.515625 48.1875 22.3125 43.546875 
Q 18.109375 38.921875 18.109375 30.90625 
L 18.109375 0 
L 9.078125 0 
L 9.078125 75.984375 
L 18.109375 75.984375 
L 18.109375 46.1875 
Q 21.34375 51.125 25.703125 53.5625 
Q 30.078125 56 35.796875 56 
Q 45.21875 56 50.046875 50.171875 
Q 54.890625 44.34375 54.890625 33.015625 
z
" id="DejaVuSans-104"/>
     </defs>
     <use xlink:href="#DejaVuSans-69"/>
     <use x="63.183594" xlink:href="#DejaVuSans-118"/>
     <use x="122.363281" xlink:href="#DejaVuSans-101"/>
     <use x="183.886719" xlink:href="#DejaVuSans-110"/>
     <use x="247.265625" xlink:href="#DejaVuSans-116"/>
     <use x="286.474609" xlink:href="#DejaVuSans-57"/>
     <use x="350.097656" xlink:href="#DejaVuSans-57"/>
     <use x="413.720703" xlink:href="#DejaVuSans-56"/>
     <use x="477.34375" xlink:href="#DejaVuSans-32"/>
     <use x="509.130859" xlink:href="#DejaVuSans-45"/>
     <use x="545.214844" xlink:href="#DejaVuSans-32"/>
     <use x="577.001953" xlink:href="#DejaVuSans-83"/>
     <use x="640.478516" xlink:href="#DejaVuSans-111"/>
     <use x="701.660156" xlink:href="#DejaVuSans-117"/>
     <use x="765.039062" xlink:href="#DejaVuSans-116"/>
     <use x="804.248047" xlink:href="#DejaVuSans-104"/>
    </g>
   </g>
   <g id="legend_1">
    <g id="patch_7">
     <path d="M 54.8065 123.99885 
L 205.19275 123.99885 
Q 207.59275 123.99885 207.59275 121.59885 
L 207.59275 34.7301 
Q 207.59275 32.3301 205.19275 32.3301 
L 54.8065 32.3301 
Q 52.4065 32.3301 52.4065 34.7301 
L 52.4065 121.59885 
Q 52.4065 123.99885 54.8065 123.99885 
z
" style="fill:#ffffff;opacity:0.8;stroke:#cccccc;stroke-linejoin:miter;"/>
    </g>
    <g id="line2d_45">
     <path d="M 57.2065 42.048225 
L 81.2065 42.048225 
" style="fill:none;stroke:#0000ff;stroke-linecap:square;stroke-width:1.7;"/>
    </g>
    <g id="line2d_46"/>
    <g id="text_23">
     <!-- Target (CTA South) -->
     <g transform="translate(90.8065 46.248225)scale(0.12 -0.12)">
      <defs>
       <path d="M -0.296875 72.90625 
L 61.375 72.90625 
L 61.375 64.59375 
L 35.5 64.59375 
L 35.5 0 
L 25.59375 0 
L 25.59375 64.59375 
L -0.296875 64.59375 
z
" id="DejaVuSans-84"/>
       <path d="M 41.109375 46.296875 
Q 39.59375 47.171875 37.8125 47.578125 
Q 36.03125 48 33.890625 48 
Q 26.265625 48 22.1875 43.046875 
Q 18.109375 38.09375 18.109375 28.8125 
L 18.109375 0 
L 9.078125 0 
L 9.078125 54.6875 
L 18.109375 54.6875 
L 18.109375 46.1875 
Q 20.953125 51.171875 25.484375 53.578125 
Q 30.03125 56 36.53125 56 
Q 37.453125 56 38.578125 55.875 
Q 39.703125 55.765625 41.0625 55.515625 
z
" id="DejaVuSans-114"/>
       <path d="M 64.40625 67.28125 
L 64.40625 56.890625 
Q 59.421875 61.53125 53.78125 63.8125 
Q 48.140625 66.109375 41.796875 66.109375 
Q 29.296875 66.109375 22.65625 58.46875 
Q 16.015625 50.828125 16.015625 36.375 
Q 16.015625 21.96875 22.65625 14.328125 
Q 29.296875 6.6875 41.796875 6.6875 
Q 48.140625 6.6875 53.78125 8.984375 
Q 59.421875 11.28125 64.40625 15.921875 
L 64.40625 5.609375 
Q 59.234375 2.09375 53.4375 0.328125 
Q 47.65625 -1.421875 41.21875 -1.421875 
Q 24.65625 -1.421875 15.125 8.703125 
Q 5.609375 18.84375 5.609375 36.375 
Q 5.609375 53.953125 15.125 64.078125 
Q 24.65625 74.21875 41.21875 74.21875 
Q 47.75 74.21875 53.53125 72.484375 
Q 59.328125 70.75 64.40625 67.28125 
z
" id="DejaVuSans-67"/>
       <path d="M 34.1875 63.1875 
L 20.796875 26.90625 
L 47.609375 26.90625 
z
M 28.609375 72.90625 
L 39.796875 72.90625 
L 67.578125 0 
L 57.328125 0 
L 50.6875 18.703125 
L 17.828125 18.703125 
L 11.1875 0 
L 0.78125 0 
z
" id="DejaVuSans-65"/>
      </defs>
      <use xlink:href="#DejaVuSans-84"/>
      <use x="44.583984" xlink:href="#DejaVuSans-97"/>
      <use x="105.863281" xlink:href="#DejaVuSans-114"/>
      <use x="145.226562" xlink:href="#DejaVuSans-103"/>
      <use x="208.703125" xlink:href="#DejaVuSans-101"/>
      <use x="270.226562" xlink:href="#DejaVuSans-116"/>
      <use x="309.435547" xlink:href="#DejaVuSans-32"/>
      <use x="341.222656" xlink:href="#DejaVuSans-40"/>
      <use x="380.236328" xlink:href="#DejaVuSans-67"/>
      <use x="450.060547" xlink:href="#DejaVuSans-84"/>
      <use x="503.394531" xlink:href="#DejaVuSans-65"/>
      <use x="571.802734" xlink:href="#DejaVuSans-32"/>
      <use x="603.589844" xlink:href="#DejaVuSans-83"/>
      <use x="667.066406" xlink:href="#DejaVuSans-111"/>
      <use x="728.248047" xlink:href="#DejaVuSans-117"/>
      <use x="791.626953" xlink:href="#DejaVuSans-116"/>
      <use x="830.835938" xlink:href="#DejaVuSans-104"/>
      <use x="894.214844" xlink:href="#DejaVuSans-41"/>
     </g>
    </g>
    <g id="line2d_47">
     <path d="M 57.2065 59.661975 
L 81.2065 59.661975 
" style="fill:none;stroke:#ff0000;stroke-linecap:square;stroke-width:1.7;"/>
    </g>
    <g id="line2d_48"/>
    <g id="text_24">
     <!-- Sun -->
     <g transform="translate(90.8065 63.861975)scale(0.12 -0.12)">
      <use xlink:href="#DejaVuSans-83"/>
      <use x="63.476562" xlink:href="#DejaVuSans-117"/>
      <use x="126.855469" xlink:href="#DejaVuSans-110"/>
     </g>
    </g>
    <g id="patch_8">
     <path d="M 57.2065 81.475725 
L 81.2065 81.475725 
L 81.2065 73.075725 
L 57.2065 73.075725 
z
" style="fill:#ffff00;opacity:0.2;stroke:#ffff00;stroke-linejoin:miter;"/>
    </g>
    <g id="text_25">
     <!-- IRF z20 -->
     <g transform="translate(90.8065 81.475725)scale(0.12 -0.12)">
      <defs>
       <path d="M 9.8125 72.90625 
L 19.671875 72.90625 
L 19.671875 0 
L 9.8125 0 
z
" id="DejaVuSans-73"/>
       <path d="M 44.390625 34.1875 
Q 47.5625 33.109375 50.5625 29.59375 
Q 53.5625 26.078125 56.59375 19.921875 
L 66.609375 0 
L 56 0 
L 46.6875 18.703125 
Q 43.0625 26.03125 39.671875 28.421875 
Q 36.28125 30.8125 30.421875 30.8125 
L 19.671875 30.8125 
L 19.671875 0 
L 9.8125 0 
L 9.8125 72.90625 
L 32.078125 72.90625 
Q 44.578125 72.90625 50.734375 67.671875 
Q 56.890625 62.453125 56.890625 51.90625 
Q 56.890625 45.015625 53.6875 40.46875 
Q 50.484375 35.9375 44.390625 34.1875 
z
M 19.671875 64.796875 
L 19.671875 38.921875 
L 32.078125 38.921875 
Q 39.203125 38.921875 42.84375 42.21875 
Q 46.484375 45.515625 46.484375 51.90625 
Q 46.484375 58.296875 42.84375 61.546875 
Q 39.203125 64.796875 32.078125 64.796875 
z
" id="DejaVuSans-82"/>
       <path d="M 9.8125 72.90625 
L 51.703125 72.90625 
L 51.703125 64.59375 
L 19.671875 64.59375 
L 19.671875 43.109375 
L 48.578125 43.109375 
L 48.578125 34.8125 
L 19.671875 34.8125 
L 19.671875 0 
L 9.8125 0 
z
" id="DejaVuSans-70"/>
       <path d="M 5.515625 54.6875 
L 48.1875 54.6875 
L 48.1875 46.484375 
L 14.40625 7.171875 
L 48.1875 7.171875 
L 48.1875 0 
L 4.296875 0 
L 4.296875 8.203125 
L 38.09375 47.515625 
L 5.515625 47.515625 
z
" id="DejaVuSans-122"/>
      </defs>
      <use xlink:href="#DejaVuSans-73"/>
      <use x="29.492188" xlink:href="#DejaVuSans-82"/>
      <use x="98.974609" xlink:href="#DejaVuSans-70"/>
      <use x="156.494141" xlink:href="#DejaVuSans-32"/>
      <use x="188.28125" xlink:href="#DejaVuSans-122"/>
      <use x="240.771484" xlink:href="#DejaVuSans-50"/>
      <use x="304.394531" xlink:href="#DejaVuSans-48"/>
     </g>
    </g>
    <g id="patch_9">
     <path d="M 57.2065 99.089475 
L 81.2065 99.089475 
L 81.2065 90.689475 
L 57.2065 90.689475 
z
" style="fill:#ffa500;opacity:0.2;stroke:#ffa500;stroke-linejoin:miter;"/>
    </g>
    <g id="text_26">
     <!-- IRF z40 -->
     <g transform="translate(90.8065 99.089475)scale(0.12 -0.12)">
      <use xlink:href="#DejaVuSans-73"/>
      <use x="29.492188" xlink:href="#DejaVuSans-82"/>
      <use x="98.974609" xlink:href="#DejaVuSans-70"/>
      <use x="156.494141" xlink:href="#DejaVuSans-32"/>
      <use x="188.28125" xlink:href="#DejaVuSans-122"/>
      <use x="240.771484" xlink:href="#DejaVuSans-52"/>
      <use x="304.394531" xlink:href="#DejaVuSans-48"/>
     </g>
    </g>
    <g id="patch_10">
     <path d="M 57.2065 116.703225 
L 81.2065 116.703225 
L 81.2065 108.303225 
L 57.2065 108.303225 
z
" style="fill:#ff0000;opacity:0.2;stroke:#ff0000;stroke-linejoin:miter;"/>
    </g>
    <g id="text_27">
     <!-- IRF z60 -->
     <g transform="translate(90.8065 116.703225)scale(0.12 -0.12)">
      <use xlink:href="#DejaVuSans-73"/>
      <use x="29.492188" xlink:href="#DejaVuSans-82"/>
      <use x="98.974609" xlink:href="#DejaVuSans-70"/>
      <use x="156.494141" xlink:href="#DejaVuSans-32"/>
      <use x="188.28125" xlink:href="#DejaVuSans-122"/>
      <use x="240.771484" xlink:href="#DejaVuSans-54"/>
      <use x="304.394531" xlink:href="#DejaVuSans-48"/>
     </g>
    </g>
   </g>
  </g>
  <g id="axes_2">
   <g id="patch_11">
    <path d="M 46.4065 841.7301 
L 883.4065 841.7301 
L 883.4065 515.5701 
L 46.4065 515.5701 
z
" style="fill:#ffffff;"/>
   </g>
   <g id="PolyCollection_9">
    <defs>
     <path d="M 84.451955 -350.762045 
L 84.451955 -54.252955 
L 165.540952 -54.252955 
L 165.540952 -350.762045 
L 165.540952 -350.762045 
L 84.451955 -350.762045 
z
" id="mef27e3984b" style="stroke:#808080;"/>
    </defs>
    <g clip-path="url(#p9508dc098d)">
     <use style="fill:#808080;stroke:#808080;" x="0" xlink:href="#mef27e3984b" y="881.1576"/>
    </g>
   </g>
   <g id="PolyCollection_10">
    <defs>
     <path d="M 84.451955 -350.762045 
L 84.451955 -54.252955 
L 139.681296 -54.252955 
L 139.681296 -350.762045 
L 139.681296 -350.762045 
L 84.451955 -350.762045 
z
" id="m4db0550aba" style="stroke:#000000;"/>
    </defs>
    <g clip-path="url(#p9508dc098d)">
     <use style="stroke:#000000;" x="0" xlink:href="#m4db0550aba" y="881.1576"/>
    </g>
   </g>
   <g id="PolyCollection_11">
    <defs>
     <path d="M 374.699505 -350.762045 
L 374.699505 -54.252955 
L 622.234897 -54.252955 
L 622.234897 -350.762045 
L 622.234897 -350.762045 
L 374.699505 -350.762045 
z
" id="m4b70fc987c" style="stroke:#808080;"/>
    </defs>
    <g clip-path="url(#p9508dc098d)">
     <use style="fill:#808080;stroke:#808080;" x="0" xlink:href="#m4b70fc987c" y="881.1576"/>
    </g>
   </g>
   <g id="PolyCollection_12">
    <defs>
     <path d="M 400.556545 -350.762045 
L 400.556545 -54.252955 
L 596.353933 -54.252955 
L 596.353933 -350.762045 
L 596.353933 -350.762045 
L 400.556545 -350.762045 
z
" id="m779dded7f3" style="stroke:#000000;"/>
    </defs>
    <g clip-path="url(#p9508dc098d)">
     <use style="stroke:#000000;" x="0" xlink:href="#m779dded7f3" y="881.1576"/>
    </g>
   </g>
   <g id="matplotlib.axis_3">
    <g id="xtick_9">
     <g id="line2d_49">
      <path clip-path="url(#p9508dc098d)" d="M 67.739748 841.7301 
L 67.739748 515.5701 
" style="fill:none;stroke:#b0b0b0;stroke-linecap:square;stroke-width:0.8;"/>
     </g>
     <g id="line2d_50"/>
     <g id="text_28">
      <!-- 3.75 -->
      <g style="fill:#565656;" transform="translate(54.380373 856.848225)scale(0.12 -0.12)">
       <use xlink:href="#DejaVuSans-51"/>
       <use x="63.623047" xlink:href="#DejaVuSans-46"/>
       <use x="95.410156" xlink:href="#DejaVuSans-55"/>
       <use x="159.033203" xlink:href="#DejaVuSans-53"/>
      </g>
     </g>
    </g>
    <g id="xtick_10">
     <g id="line2d_51">
      <path clip-path="url(#p9508dc098d)" d="M 181.877641 841.7301 
L 181.877641 515.5701 
" style="fill:none;stroke:#b0b0b0;stroke-linecap:square;stroke-width:0.8;"/>
     </g>
     <g id="line2d_52"/>
     <g id="text_29">
      <!-- 4.00 -->
      <g style="fill:#565656;" transform="translate(168.518266 856.848225)scale(0.12 -0.12)">
       <use xlink:href="#DejaVuSans-52"/>
       <use x="63.623047" xlink:href="#DejaVuSans-46"/>
       <use x="95.410156" xlink:href="#DejaVuSans-48"/>
       <use x="159.033203" xlink:href="#DejaVuSans-48"/>
      </g>
     </g>
    </g>
    <g id="xtick_11">
     <g id="line2d_53">
      <path clip-path="url(#p9508dc098d)" d="M 296.015534 841.7301 
L 296.015534 515.5701 
" style="fill:none;stroke:#b0b0b0;stroke-linecap:square;stroke-width:0.8;"/>
     </g>
     <g id="line2d_54"/>
     <g id="text_30">
      <!-- 4.25 -->
      <g style="fill:#565656;" transform="translate(282.656159 856.848225)scale(0.12 -0.12)">
       <use xlink:href="#DejaVuSans-52"/>
       <use x="63.623047" xlink:href="#DejaVuSans-46"/>
       <use x="95.410156" xlink:href="#DejaVuSans-50"/>
       <use x="159.033203" xlink:href="#DejaVuSans-53"/>
      </g>
     </g>
    </g>
    <g id="xtick_12">
     <g id="line2d_55">
      <path clip-path="url(#p9508dc098d)" d="M 410.153428 841.7301 
L 410.153428 515.5701 
" style="fill:none;stroke:#b0b0b0;stroke-linecap:square;stroke-width:0.8;"/>
     </g>
     <g id="line2d_56"/>
     <g id="text_31">
      <!-- 4.50 -->
      <g style="fill:#565656;" transform="translate(396.794053 856.848225)scale(0.12 -0.12)">
       <use xlink:href="#DejaVuSans-52"/>
       <use x="63.623047" xlink:href="#DejaVuSans-46"/>
       <use x="95.410156" xlink:href="#DejaVuSans-53"/>
       <use x="159.033203" xlink:href="#DejaVuSans-48"/>
      </g>
     </g>
    </g>
    <g id="xtick_13">
     <g id="line2d_57">
      <path clip-path="url(#p9508dc098d)" d="M 524.291321 841.7301 
L 524.291321 515.5701 
" style="fill:none;stroke:#b0b0b0;stroke-linecap:square;stroke-width:0.8;"/>
     </g>
     <g id="line2d_58"/>
     <g id="text_32">
      <!-- 4.75 -->
      <g style="fill:#565656;" transform="translate(510.931946 856.848225)scale(0.12 -0.12)">
       <use xlink:href="#DejaVuSans-52"/>
       <use x="63.623047" xlink:href="#DejaVuSans-46"/>
       <use x="95.410156" xlink:href="#DejaVuSans-55"/>
       <use x="159.033203" xlink:href="#DejaVuSans-53"/>
      </g>
     </g>
    </g>
    <g id="xtick_14">
     <g id="line2d_59">
      <path clip-path="url(#p9508dc098d)" d="M 638.429215 841.7301 
L 638.429215 515.5701 
" style="fill:none;stroke:#b0b0b0;stroke-linecap:square;stroke-width:0.8;"/>
     </g>
     <g id="line2d_60"/>
     <g id="text_33">
      <!-- 5.00 -->
      <g style="fill:#565656;" transform="translate(625.06984 856.848225)scale(0.12 -0.12)">
       <use xlink:href="#DejaVuSans-53"/>
       <use x="63.623047" xlink:href="#DejaVuSans-46"/>
       <use x="95.410156" xlink:href="#DejaVuSans-48"/>
       <use x="159.033203" xlink:href="#DejaVuSans-48"/>
      </g>
     </g>
    </g>
    <g id="xtick_15">
     <g id="line2d_61">
      <path clip-path="url(#p9508dc098d)" d="M 752.567108 841.7301 
L 752.567108 515.5701 
" style="fill:none;stroke:#b0b0b0;stroke-linecap:square;stroke-width:0.8;"/>
     </g>
     <g id="line2d_62"/>
     <g id="text_34">
      <!-- 5.25 -->
      <g style="fill:#565656;" transform="translate(739.207733 856.848225)scale(0.12 -0.12)">
       <use xlink:href="#DejaVuSans-53"/>
       <use x="63.623047" xlink:href="#DejaVuSans-46"/>
       <use x="95.410156" xlink:href="#DejaVuSans-50"/>
       <use x="159.033203" xlink:href="#DejaVuSans-53"/>
      </g>
     </g>
    </g>
    <g id="xtick_16">
     <g id="line2d_63">
      <path clip-path="url(#p9508dc098d)" d="M 866.705002 841.7301 
L 866.705002 515.5701 
" style="fill:none;stroke:#b0b0b0;stroke-linecap:square;stroke-width:0.8;"/>
     </g>
     <g id="line2d_64"/>
     <g id="text_35">
      <!-- 5.50 -->
      <g style="fill:#565656;" transform="translate(853.345627 856.848225)scale(0.12 -0.12)">
       <use xlink:href="#DejaVuSans-53"/>
       <use x="63.623047" xlink:href="#DejaVuSans-46"/>
       <use x="95.410156" xlink:href="#DejaVuSans-53"/>
       <use x="159.033203" xlink:href="#DejaVuSans-48"/>
      </g>
     </g>
    </g>
    <g id="text_36">
     <!-- +2.4681e6 -->
     <g style="fill:#565656;" transform="translate(816.343375 871.461975)scale(0.12 -0.12)">
      <use xlink:href="#DejaVuSans-43"/>
      <use x="83.789062" xlink:href="#DejaVuSans-50"/>
      <use x="147.412109" xlink:href="#DejaVuSans-46"/>
      <use x="179.199219" xlink:href="#DejaVuSans-52"/>
      <use x="242.822266" xlink:href="#DejaVuSans-54"/>
      <use x="306.445312" xlink:href="#DejaVuSans-56"/>
      <use x="370.068359" xlink:href="#DejaVuSans-49"/>
      <use x="433.691406" xlink:href="#DejaVuSans-101"/>
      <use x="495.214844" xlink:href="#DejaVuSans-54"/>
     </g>
    </g>
   </g>
   <g id="matplotlib.axis_4">
    <g id="ytick_11">
     <g id="line2d_65">
      <path clip-path="url(#p9508dc098d)" d="M 46.4065 840.198248 
L 883.4065 840.198248 
" style="fill:none;stroke:#b0b0b0;stroke-linecap:square;stroke-width:0.8;"/>
     </g>
     <g id="line2d_66"/>
     <g id="text_37">
      <!-- 100 -->
      <g style="fill:#565656;" transform="translate(17.5015 844.75731)scale(0.12 -0.12)">
       <use xlink:href="#DejaVuSans-49"/>
       <use x="63.623047" xlink:href="#DejaVuSans-48"/>
       <use x="127.246094" xlink:href="#DejaVuSans-48"/>
      </g>
     </g>
    </g>
    <g id="ytick_12">
     <g id="line2d_67">
      <path clip-path="url(#p9508dc098d)" d="M 46.4065 802.814313 
L 883.4065 802.814313 
" style="fill:none;stroke:#b0b0b0;stroke-linecap:square;stroke-width:0.8;"/>
     </g>
     <g id="line2d_68"/>
     <g id="text_38">
      <!-- 105 -->
      <g style="fill:#565656;" transform="translate(17.5015 807.373375)scale(0.12 -0.12)">
       <use xlink:href="#DejaVuSans-49"/>
       <use x="63.623047" xlink:href="#DejaVuSans-48"/>
       <use x="127.246094" xlink:href="#DejaVuSans-53"/>
      </g>
     </g>
    </g>
    <g id="ytick_13">
     <g id="line2d_69">
      <path clip-path="url(#p9508dc098d)" d="M 46.4065 765.430378 
L 883.4065 765.430378 
" style="fill:none;stroke:#b0b0b0;stroke-linecap:square;stroke-width:0.8;"/>
     </g>
     <g id="line2d_70"/>
     <g id="text_39">
      <!-- 110 -->
      <g style="fill:#565656;" transform="translate(17.5015 769.98944)scale(0.12 -0.12)">
       <use xlink:href="#DejaVuSans-49"/>
       <use x="63.623047" xlink:href="#DejaVuSans-49"/>
       <use x="127.246094" xlink:href="#DejaVuSans-48"/>
      </g>
     </g>
    </g>
    <g id="ytick_14">
     <g id="line2d_71">
      <path clip-path="url(#p9508dc098d)" d="M 46.4065 728.046443 
L 883.4065 728.046443 
" style="fill:none;stroke:#b0b0b0;stroke-linecap:square;stroke-width:0.8;"/>
     </g>
     <g id="line2d_72"/>
     <g id="text_40">
      <!-- 115 -->
      <g style="fill:#565656;" transform="translate(17.5015 732.605505)scale(0.12 -0.12)">
       <use xlink:href="#DejaVuSans-49"/>
       <use x="63.623047" xlink:href="#DejaVuSans-49"/>
       <use x="127.246094" xlink:href="#DejaVuSans-53"/>
      </g>
     </g>
    </g>
    <g id="ytick_15">
     <g id="line2d_73">
      <path clip-path="url(#p9508dc098d)" d="M 46.4065 690.662508 
L 883.4065 690.662508 
" style="fill:none;stroke:#b0b0b0;stroke-linecap:square;stroke-width:0.8;"/>
     </g>
     <g id="line2d_74"/>
     <g id="text_41">
      <!-- 120 -->
      <g style="fill:#565656;" transform="translate(17.5015 695.22157)scale(0.12 -0.12)">
       <use xlink:href="#DejaVuSans-49"/>
       <use x="63.623047" xlink:href="#DejaVuSans-50"/>
       <use x="127.246094" xlink:href="#DejaVuSans-48"/>
      </g>
     </g>
    </g>
    <g id="ytick_16">
     <g id="line2d_75">
      <path clip-path="url(#p9508dc098d)" d="M 46.4065 653.278573 
L 883.4065 653.278573 
" style="fill:none;stroke:#b0b0b0;stroke-linecap:square;stroke-width:0.8;"/>
     </g>
     <g id="line2d_76"/>
     <g id="text_42">
      <!-- 125 -->
      <g style="fill:#565656;" transform="translate(17.5015 657.837636)scale(0.12 -0.12)">
       <use xlink:href="#DejaVuSans-49"/>
       <use x="63.623047" xlink:href="#DejaVuSans-50"/>
       <use x="127.246094" xlink:href="#DejaVuSans-53"/>
      </g>
     </g>
    </g>
    <g id="ytick_17">
     <g id="line2d_77">
      <path clip-path="url(#p9508dc098d)" d="M 46.4065 615.894638 
L 883.4065 615.894638 
" style="fill:none;stroke:#b0b0b0;stroke-linecap:square;stroke-width:0.8;"/>
     </g>
     <g id="line2d_78"/>
     <g id="text_43">
      <!-- 130 -->
      <g style="fill:#565656;" transform="translate(17.5015 620.453701)scale(0.12 -0.12)">
       <use xlink:href="#DejaVuSans-49"/>
       <use x="63.623047" xlink:href="#DejaVuSans-51"/>
       <use x="127.246094" xlink:href="#DejaVuSans-48"/>
      </g>
     </g>
    </g>
    <g id="ytick_18">
     <g id="line2d_79">
      <path clip-path="url(#p9508dc098d)" d="M 46.4065 578.510703 
L 883.4065 578.510703 
" style="fill:none;stroke:#b0b0b0;stroke-linecap:square;stroke-width:0.8;"/>
     </g>
     <g id="line2d_80"/>
     <g id="text_44">
      <!-- 135 -->
      <g style="fill:#565656;" transform="translate(17.5015 583.069766)scale(0.12 -0.12)">
       <use xlink:href="#DejaVuSans-49"/>
       <use x="63.623047" xlink:href="#DejaVuSans-51"/>
       <use x="127.246094" xlink:href="#DejaVuSans-53"/>
      </g>
     </g>
    </g>
    <g id="ytick_19">
     <g id="line2d_81">
      <path clip-path="url(#p9508dc098d)" d="M 46.4065 541.126768 
L 883.4065 541.126768 
" style="fill:none;stroke:#b0b0b0;stroke-linecap:square;stroke-width:0.8;"/>
     </g>
     <g id="line2d_82"/>
     <g id="text_45">
      <!-- 140 -->
      <g style="fill:#565656;" transform="translate(17.5015 545.685831)scale(0.12 -0.12)">
       <use xlink:href="#DejaVuSans-49"/>
       <use x="63.623047" xlink:href="#DejaVuSans-52"/>
       <use x="127.246094" xlink:href="#DejaVuSans-48"/>
      </g>
     </g>
    </g>
   </g>
   <g id="line2d_83">
    <path clip-path="url(#p9508dc098d)" d="M 84.451955 752.136776 
L 92.137905 751.274591 
L 99.823855 750.387099 
L 107.509806 749.467924 
L 115.195756 748.511092 
L 122.881706 747.511095 
L 130.567657 746.462956 
L 138.253608 745.362283 
L 145.939558 744.20531 
L 153.625508 742.98894 
L 161.311459 741.710763 
L 168.997409 740.369081 
L 176.68336 738.962912 
L 184.36931 737.491993 
L 192.05526 735.956768 
L 199.741211 734.358375 
L 207.427161 732.698623 
L 215.113111 730.979959 
L 222.799062 729.205436 
L 230.485013 727.378674 
L 238.170963 725.503811 
L 245.856913 723.58546 
L 253.542864 721.628655 
L 261.228814 719.638798 
L 268.914765 717.621603 
L 276.600715 715.583041 
L 284.286665 713.529281 
L 291.972616 711.466627 
L 299.658566 709.401467 
L 307.344517 707.340205 
L 315.030467 705.289208 
L 322.716417 703.254742 
L 330.402368 701.24292 
L 338.088318 699.259637 
L 345.774269 697.310522 
L 353.460219 695.400877 
L 361.146169 693.535629 
L 368.83212 691.719279 
L 376.51807 689.955854 
L 384.204021 688.248864 
L 391.889971 686.601263 
L 399.575922 685.015409 
L 407.261872 683.493039 
L 414.947822 682.035242 
L 422.633773 680.642437 
L 430.319723 679.314364 
L 438.005674 678.050077 
L 445.691624 676.847945 
L 453.377574 675.705666 
L 461.063525 674.620278 
L 468.749475 673.588195 
L 476.435426 672.605231 
L 484.121376 671.666652 
L 491.807326 670.767221 
L 499.493277 669.90126 
L 507.179227 669.062709 
L 514.865178 668.245203 
L 522.551128 667.442143 
L 530.237078 666.646777 
L 537.923029 665.852281 
L 545.608979 665.051842 
L 553.29493 664.238744 
L 560.98088 663.406444 
L 568.666831 662.548657 
L 576.352781 661.659427 
L 584.038731 660.7332 
L 591.724682 659.764885 
L 599.410632 658.749914 
L 607.096583 657.684289 
L 614.782533 656.564625 
L 622.468483 655.388181 
L 630.154434 654.152884 
L 637.840384 652.857346 
L 645.526335 651.500867 
L 653.212285 650.083436 
L 660.898236 648.60572 
L 668.584186 647.069047 
L 676.270136 645.475381 
L 683.956087 643.827294 
L 691.642037 642.127928 
L 699.327987 640.380958 
L 707.013938 638.590541 
L 714.699888 636.761273 
L 722.385839 634.898136 
L 730.071789 633.006443 
L 737.75774 631.091784 
L 745.44369 629.159965 
L 753.129641 627.216955 
L 760.815591 625.268823 
L 768.501541 623.32168 
L 776.187492 621.381619 
L 783.873442 619.45466 
L 791.559392 617.546686 
L 799.245343 615.663393 
L 806.931293 613.810229 
L 814.617244 611.992347 
L 822.303194 610.214547 
L 829.989145 608.481233 
L 837.675095 606.796367 
L 845.361046 605.163424 
" style="fill:none;stroke:#ff0000;stroke-linecap:square;stroke-width:1.7;"/>
   </g>
   <g id="line2d_84">
    <path clip-path="url(#p9508dc098d)" d="M 400.556545 841.7301 
L 400.556545 515.5701 
" style="fill:none;stroke:#ffffff;stroke-dasharray:12.8,3.2,2,3.2;stroke-dashoffset:0;stroke-width:2;"/>
   </g>
   <g id="line2d_85">
    <path clip-path="url(#p9508dc098d)" d="M 414.056209 841.7301 
L 414.056209 515.5701 
" style="fill:none;stroke:#ffffff;stroke-dasharray:12.8,3.2,2,3.2;stroke-dashoffset:0;stroke-width:2;"/>
   </g>
   <g id="line2d_86">
    <path clip-path="url(#p9508dc098d)" d="M 414.056209 841.7301 
L 414.056209 515.5701 
" style="fill:none;stroke:#ffffff;stroke-dasharray:12.8,3.2,2,3.2;stroke-dashoffset:0;stroke-width:2;"/>
   </g>
   <g id="line2d_87">
    <path clip-path="url(#p9508dc098d)" d="M 446.359182 841.7301 
L 446.359182 515.5701 
" style="fill:none;stroke:#ffffff;stroke-dasharray:12.8,3.2,2,3.2;stroke-dashoffset:0;stroke-width:2;"/>
   </g>
   <g id="line2d_88">
    <path clip-path="url(#p9508dc098d)" d="M 446.359182 841.7301 
L 446.359182 515.5701 
" style="fill:none;stroke:#ffffff;stroke-dasharray:12.8,3.2,2,3.2;stroke-dashoffset:0;stroke-width:2;"/>
   </g>
   <g id="line2d_89">
    <path clip-path="url(#p9508dc098d)" d="M 482.954055 841.7301 
L 482.954055 515.5701 
" style="fill:none;stroke:#ffffff;stroke-dasharray:12.8,3.2,2,3.2;stroke-dashoffset:0;stroke-width:2;"/>
   </g>
   <g id="patch_12">
    <path d="M 46.4065 841.7301 
L 46.4065 515.5701 
" style="fill:none;stroke:#aaaaaa;stroke-linecap:square;stroke-linejoin:miter;"/>
   </g>
   <g id="patch_13">
    <path d="M 883.4065 841.7301 
L 883.4065 515.5701 
" style="fill:none;stroke:#aaaaaa;stroke-linecap:square;stroke-linejoin:miter;"/>
   </g>
   <g id="patch_14">
    <path d="M 46.4065 841.7301 
L 883.4065 841.7301 
" style="fill:none;stroke:#aaaaaa;stroke-linecap:square;stroke-linejoin:miter;"/>
   </g>
   <g id="patch_15">
    <path d="M 46.4065 515.5701 
L 883.4065 515.5701 
" style="fill:none;stroke:#aaaaaa;stroke-linecap:square;stroke-linejoin:miter;"/>
   </g>
  </g>
 </g>
 <defs>
  <clipPath id="p1412b2073d">
   <rect height="326.16" width="837" x="46.4065" y="26.3301"/>
  </clipPath>
  <clipPath id="p9508dc098d">
   <rect height="326.16" width="837" x="46.4065" y="515.5701"/>
  </clipPath>
 </defs>
</svg>
